<svg id="Layer_1" data-name="Layer 1" xmlns="http://www.w3.org/2000/svg" viewBox="0 0 465.44 79.45"><defs><style>.cls-1{fill:#1b1b1a;stroke:#f7c832;stroke-miterlimit:10;stroke-width:5px;}.cls-2{font-size:7px;fill:#fff;font-family:CenturyGothicPro, Century Gothic Pro;}.cls-3{letter-spacing:-0.05em;}.cls-4{letter-spacing:0em;}.cls-5{letter-spacing:-0.01em;}.cls-6{letter-spacing:0em;}.cls-7{letter-spacing:0.03em;}.cls-8{fill:#f7c832;}</style></defs><line class="cls-1" x1="12.92" y1="36.2" x2="442.85" y2="36.2"/><line class="cls-1" x1="47.44" y1="36.2" x2="47.44" y2="17.01"/><line class="cls-1" x1="161.25" y1="36.2" x2="161.25" y2="17.01"/><line class="cls-1" x1="270.05" y1="36.2" x2="270.05" y2="17.01"/><line class="cls-1" x1="369.06" y1="36.2" x2="369.06" y2="17.01"/><line class="cls-1" x1="96.38" y1="55.38" x2="96.38" y2="36.2"/><line class="cls-1" x1="210.19" y1="55.38" x2="210.19" y2="36.2"/><line class="cls-1" x1="318.99" y1="55.38" x2="318.99" y2="36.2"/><line class="cls-1" x1="418.01" y1="55.38" x2="418.01" y2="36.2"/><text class="cls-2" transform="translate(7.37 6.01)"><tspan class="cls-3">T</tspan><tspan x="2.64" y="0">eo</tspan><tspan class="cls-4" x="11.77" y="0">r</tspan><tspan x="13.85" y="0">etisk utvä</tspan><tspan class="cls-5" x="45.63" y="0">r</tspan><tspan x="47.7" y="0">dering av </tspan><tspan x="11.11" y="8.4">befintlig hemsida</tspan></text><text class="cls-2" transform="translate(132.22 6.01)">Användar studie av <tspan x="-11.8" y="8.4">befintlig hemsisa(p</tspan><tspan class="cls-6" x="51.38" y="8.4">r</tspan><tspan x="53.46" y="8.4">ototyp)</tspan></text><text class="cls-2" transform="translate(59.08 63.89)">Framtagning p<tspan class="cls-6" x="50.08" y="0">r</tspan><tspan x="52.16" y="0">ototyp </tspan><tspan x="8.35" y="8.4">befintlig hemsida</tspan></text><text class="cls-2" transform="translate(194.73 63.89)">Analys av <tspan x="-15.93" y="8.4">användba</tspan><tspan class="cls-7" x="20.4" y="8.4">r</tspan><tspan x="22.71" y="8.4">hetstest</tspan></text><text class="cls-2" transform="translate(278.93 63.89)"><tspan class="cls-3">T</tspan><tspan x="2.64" y="0">eo</tspan><tspan class="cls-4" x="11.77" y="0">r</tspan><tspan x="13.85" y="0">etisk utvä</tspan><tspan class="cls-5" x="45.63" y="0">r</tspan><tspan x="47.7" y="0">dering av </tspan><tspan class="cls-6" x="25.53" y="8.4">r</tspan><tspan x="27.61" y="8.4">edesign</tspan></text><text class="cls-2" transform="translate(386.04 63.89)">Analys av p<tspan class="cls-6" x="39.41" y="0">r</tspan><tspan x="41.49" y="0">ototyp </tspan><tspan class="cls-6" x="17.43" y="8.4">r</tspan><tspan x="19.51" y="8.4">edesign</tspan></text><text class="cls-2" transform="translate(232.75 6.01)">Framtagnign p<tspan class="cls-6" x="50.08" y="0">r</tspan><tspan x="52.16" y="0">ototyp </tspan><tspan class="cls-6" x="22.76" y="8.4">r</tspan><tspan x="24.84" y="8.4">edesign</tspan></text><text class="cls-2" transform="translate(336.69 6.01)">Användarstudie av <tspan class="cls-6" x="17.84" y="8.4">r</tspan><tspan x="19.92" y="8.4">edesign</tspan></text><polygon class="cls-8" points="462.61 36.2 441.94 45.06 441.94 27.33 462.61 36.2"/></svg>