<svg id="Layer_1" data-name="Layer 1" xmlns="http://www.w3.org/2000/svg" viewBox="0 0 492.99 337.98"><defs><style>.cls-1,.cls-4,.cls-6{fill:none;}.cls-1,.cls-7{stroke:#000;}.cls-1,.cls-3,.cls-4,.cls-7{stroke-miterlimit:10;}.cls-2{font-size:19.03px;font-family:MyriadPro-Regular, Myriad Pro;}.cls-13,.cls-14,.cls-2,.cls-9{fill:#1b1b1a;}.cls-3{fill:#f8a92d;stroke:#ffcb07;stroke-linecap:round;}.cls-3,.cls-4{stroke-width:2px;}.cls-4{stroke:#4376ba;}.cls-5{fill:#ffcb07;}.cls-7{fill:#dfdfdf;stroke-width:0.5px;}.cls-8{fill:#4376ba;}.cls-14,.cls-9{font-size:12px;}.cls-13,.cls-14,.cls-9{font-family:CenturyGothicPro-Bold, Century Gothic Pro;font-weight:700;}.cls-10{letter-spacing:-0.01em;}.cls-11{letter-spacing:-0.01em;}.cls-12{letter-spacing:-0.03em;}.cls-13{font-size:21.18px;}.cls-14{letter-spacing:-0.02em;}.cls-15{letter-spacing:0em;}</style></defs><line class="cls-1" x1="80.61" y1="309.1" x2="486.53" y2="309.1"/><line class="cls-1" x1="80.61" y1="309.1" x2="80.61" y2="301.83"/><line class="cls-1" x1="161.8" y1="309.1" x2="161.8" y2="301.83"/><line class="cls-1" x1="242.98" y1="309.1" x2="242.98" y2="301.83"/><line class="cls-1" x1="324.16" y1="309.1" x2="324.16" y2="301.83"/><line class="cls-1" x1="405.35" y1="309.1" x2="405.35" y2="301.83"/><line class="cls-1" x1="486.53" y1="309.1" x2="486.53" y2="301.83"/><text class="cls-2" transform="translate(64.51 316.23)">0</text><text class="cls-2" transform="translate(64.51 258.12)">5</text><text class="cls-2" transform="translate(54.75 200)">10</text><text class="cls-2" transform="translate(54.75 141.89)">15</text><text class="cls-2" transform="translate(54.75 83.77)">20</text><text class="cls-2" transform="translate(54.75 25.66)">25</text><line class="cls-1" x1="80.61" y1="309.1" x2="80.61" y2="18.52"/><line class="cls-1" x1="80.61" y1="309.1" x2="90.76" y2="309.1"/><line class="cls-1" x1="80.61" y1="250.98" x2="90.76" y2="250.98"/><line class="cls-1" x1="80.61" y1="192.87" x2="90.76" y2="192.87"/><line class="cls-1" x1="80.61" y1="134.75" x2="90.76" y2="134.75"/><line class="cls-1" x1="80.61" y1="76.64" x2="90.76" y2="76.64"/><line class="cls-1" x1="80.61" y1="18.82" x2="90.76" y2="18.82"/><line class="cls-3" x1="202.39" y1="262.6" x2="121.2" y2="146.37"/><line class="cls-3" x1="283.57" y1="262.6" x2="202.39" y2="262.6"/><line class="cls-3" x1="364.76" y1="285.85" x2="283.57" y2="262.6"/><line class="cls-3" x1="445.94" y1="262.6" x2="364.76" y2="285.85"/><line class="cls-4" x1="202.39" y1="239.36" x2="121.2" y2="53.39"/><line class="cls-4" x1="283.57" y1="262.6" x2="202.39" y2="239.36"/><line class="cls-4" x1="364.76" y1="274.23" x2="283.57" y2="262.6"/><line class="cls-4" x1="445.94" y1="262.6" x2="364.76" y2="274.23"/><rect class="cls-5" x="118.2" y="143.37" width="6" height="6"/><rect class="cls-5" x="199.39" y="259.6" width="6" height="6"/><rect class="cls-6" x="280.57" y="259.6" width="6" height="6"/><rect class="cls-5" x="361.76" y="282.85" width="6" height="6"/><rect class="cls-7" x="442.94" y="259.6" width="6" height="6"/><rect class="cls-8" x="118.2" y="50.39" width="6" height="6"/><rect class="cls-8" x="199.39" y="236.36" width="6" height="6"/><rect class="cls-8" x="280.57" y="259.6" width="6" height="6"/><rect class="cls-8" x="361.76" y="271.23" width="6" height="6"/><rect class="cls-8" x="442.94" y="259.6" width="6" height="6"/><text class="cls-9" transform="translate(418.82 327.91)">Betalning</text><text class="cls-9" transform="translate(349.19 327.91)"><tspan class="cls-10">T</tspan><tspan x="4.98" y="0">illval</tspan></text><text class="cls-9" transform="translate(268.45 327.91)">Bilval</text><text class="cls-9" transform="translate(168.74 328.09)">Ändra <tspan class="cls-11" x="39.12" y="0">r</tspan><tspan x="42.86" y="0">esva</tspan></text><text class="cls-9" transform="translate(101.28 328.09)"><tspan class="cls-12">R</tspan><tspan x="6.66" y="0">esplan</tspan></text><text class="cls-13" transform="translate(34.41 216.91) rotate(-90)">Antal klick </text><text class="cls-14" transform="translate(353.84 49.52)">R<tspan class="cls-15" x="6.66" y="0">edesign </tspan></text><text class="cls-9" transform="translate(353.84 96.72)">O<tspan class="cls-11" x="10.08" y="0">r</tspan><tspan x="13.82" y="0">ginalet</tspan></text><rect class="cls-5" x="426.4" y="26.63" width="34.64" height="34.64"/><rect class="cls-8" x="426.4" y="74.01" width="34.64" height="34.64"/></svg>