<svg id="Layer_1" data-name="Layer 1" xmlns="http://www.w3.org/2000/svg" viewBox="0 0 423.25 339.67"><defs><style>.cls-1{font-size:21.18px;}.cls-1,.cls-10,.cls-3,.cls-5{fill:#1b1b1a;font-family:CenturyGothicPro-Bold, Century Gothic Pro;font-weight:700;}.cls-2{letter-spacing:-0.05em;}.cls-3,.cls-5{font-size:12px;}.cls-3{letter-spacing:-0.02em;}.cls-4{letter-spacing:0em;}.cls-6{letter-spacing:-0.01em;}.cls-7{fill:#ffcb07;}.cls-8{fill:#4376ba;}.cls-9{fill:none;stroke:#000;stroke-miterlimit:10;}.cls-10{font-size:16.95px;}</style></defs><text class="cls-1" transform="translate(76.57 29.17)"><tspan class="cls-2">T</tspan><tspan x="7.84" y="0">otal tid</tspan></text><text class="cls-3" transform="translate(304.16 56.3)">R<tspan class="cls-4" x="6.66" y="0">edesign </tspan></text><text class="cls-5" transform="translate(304.16 103.5)">O<tspan class="cls-6" x="10.08" y="0">r</tspan><tspan x="13.82" y="0">ginalet</tspan></text><rect class="cls-7" x="376.71" y="33.4" width="34.64" height="34.64"/><rect class="cls-8" x="376.71" y="80.79" width="34.64" height="34.64"/><line class="cls-9" x1="52.45" y1="330.98" x2="413.99" y2="330.98"/><line class="cls-9" x1="52.45" y1="330.98" x2="52.45" y2="323.41"/><line class="cls-9" x1="233.22" y1="330.98" x2="233.22" y2="323.41"/><line class="cls-9" x1="413.99" y1="330.98" x2="413.99" y2="323.41"/><text class="cls-10" transform="translate(37.31 337.34)">0</text><text class="cls-10" transform="translate(18.33 276.77)">200</text><text class="cls-10" transform="translate(18.33 216.21)">400</text><text class="cls-10" transform="translate(18.33 155.65)">600</text><text class="cls-10" transform="translate(18.33 95.09)">800</text><text class="cls-10" transform="translate(8.84 34.53)">1000</text><line class="cls-9" x1="52.45" y1="330.98" x2="52.45" y2="28.17"/><line class="cls-9" x1="52.45" y1="330.98" x2="61.49" y2="330.98"/><line class="cls-9" x1="52.45" y1="270.42" x2="61.49" y2="270.42"/><line class="cls-9" x1="52.45" y1="209.86" x2="61.49" y2="209.86"/><line class="cls-9" x1="52.45" y1="149.29" x2="61.49" y2="149.29"/><line class="cls-9" x1="52.45" y1="88.73" x2="61.49" y2="88.73"/><line class="cls-9" x1="52.45" y1="28.17" x2="61.49" y2="28.17"/><rect class="cls-7" x="258.53" y="194.72" width="130.15" height="135.67"/><rect class="cls-8" x="77.76" y="73.59" width="130.15" height="256.89"/></svg>