<svg id="Layer_1" data-name="Layer 1" xmlns="http://www.w3.org/2000/svg" viewBox="0 0 405.65 343.89"><defs><style>.cls-1{font-size:21.18px;}.cls-1,.cls-10,.cls-3,.cls-5{fill:#1b1b1a;font-family:CenturyGothicPro-Bold, Century Gothic Pro;font-weight:700;}.cls-2{letter-spacing:-0.05em;}.cls-3,.cls-5{font-size:12px;}.cls-3{letter-spacing:-0.02em;}.cls-4{letter-spacing:0em;}.cls-6{letter-spacing:-0.01em;}.cls-7{fill:#ffcb07;}.cls-8{fill:#4376ba;}.cls-9{fill:none;stroke:#000;stroke-miterlimit:10;}.cls-10{font-size:16.95px;}</style></defs><text class="cls-1" transform="translate(71.88 33.42)"><tspan class="cls-2">T</tspan><tspan x="7.84" y="0">otalt klick</tspan></text><text class="cls-3" transform="translate(294.22 39.34)">R<tspan class="cls-4" x="6.66" y="0">edesign </tspan></text><text class="cls-5" transform="translate(294.22 86.54)">O<tspan class="cls-6" x="10.08" y="0">r</tspan><tspan x="13.82" y="0">ginalet</tspan></text><rect class="cls-7" x="366.76" y="16.45" width="34.64" height="34.64"/><rect class="cls-8" x="366.76" y="63.83" width="34.64" height="34.64"/><line class="cls-9" x1="43.61" y1="333.81" x2="405.15" y2="333.81"/><line class="cls-9" x1="43.61" y1="333.81" x2="43.61" y2="326.23"/><line class="cls-9" x1="224.38" y1="333.81" x2="224.38" y2="326.23"/><line class="cls-9" x1="405.15" y1="333.81" x2="405.15" y2="326.23"/><text class="cls-10" transform="translate(28.47 340.16)">0</text><text class="cls-10" transform="translate(18.98 302.31)">10</text><text class="cls-10" transform="translate(18.98 264.46)">20</text><text class="cls-10" transform="translate(18.98 226.61)">30</text><text class="cls-10" transform="translate(18.98 188.75)">40</text><text class="cls-10" transform="translate(18.98 150.9)">50</text><text class="cls-10" transform="translate(18.98 113.05)">60</text><text class="cls-10" transform="translate(18.98 75.2)">70</text><text class="cls-10" transform="translate(18.98 37.35)">80</text><line class="cls-9" x1="43.61" y1="333.81" x2="43.61" y2="30.99"/><line class="cls-9" x1="43.61" y1="333.81" x2="52.65" y2="333.81"/><line class="cls-9" x1="43.61" y1="295.95" x2="52.65" y2="295.95"/><line class="cls-9" x1="43.61" y1="258.1" x2="52.65" y2="258.1"/><line class="cls-9" x1="43.61" y1="220.25" x2="52.65" y2="220.25"/><line class="cls-9" x1="43.61" y1="182.4" x2="52.65" y2="182.4"/><line class="cls-9" x1="43.61" y1="144.55" x2="52.65" y2="144.55"/><line class="cls-9" x1="43.61" y1="106.7" x2="52.65" y2="106.7"/><line class="cls-9" x1="43.61" y1="68.85" x2="52.65" y2="68.85"/><line class="cls-9" x1="43.61" y1="30.99" x2="52.65" y2="30.99"/><polygon class="cls-7" points="249.69 125.62 379.84 125.62 379.84 333.2 249.69 333.11 249.69 125.62"/><rect class="cls-8" x="68.92" y="87.77" width="130.15" height="245.53"/></svg>