<?xml version="1.0" encoding="utf-8"?>
<!-- Generator: Adobe Illustrator 25.4.1, SVG Export Plug-In . SVG Version: 6.00 Build 0)  -->
<svg version="1.1" id="Layer_1" xmlns="http://www.w3.org/2000/svg" xmlns:xlink="http://www.w3.org/1999/xlink" x="0px" y="0px"
	 viewBox="0 0 546.55 382.73" style="enable-background:new 0 0 546.55 382.73;" xml:space="preserve">
<style type="text/css">
	.st0{fill:#F7CF39;}
	.st1{fill:#F4F3F3;}
</style>
<g id="Dgk27y.tif">
	<g>
		<path class="st0" d="M541.96,191.45c3.66,10.92,4.7,22.16,4.59,33.63c-0.2,21.71-0.13,43.42-0.17,65.13
			c-1.95,4.71-4.87,8.45-9.95,10.07c-5.64,0.74-11.31,0.29-16.96,0.49c-0.83-0.57-1.77-0.32-2.66-0.32
			c-5.81-0.02-11.62-0.01-17.43-0.01c-8.12,0-8.12,0-7.8,8.41c-0.93,6.4-2.22,12.73-4.17,18.91c-3.98,10.04-9.2,19.35-16.35,27.51
			c-2.18,2.2-4.35,4.39-6.53,6.59c-3.69,2.82-7.25,5.8-11.2,8.29c-5.16,3.25-10.77,5.53-16.33,7.9c-6.2,1.86-12.46,3.44-18.89,4.26
			c-2.7-0.29-5.36,0.3-8.04,0.44c-2.67-0.14-5.34-0.28-8.02-0.43c-6.61-0.77-13.03-2.4-19.39-4.28c-5.29-2.39-10.73-4.43-15.7-7.54
			c-4.17-2.61-7.87-5.81-11.83-8.67c-2.17-2.19-4.34-4.39-6.5-6.58c-6.56-7.96-12.14-16.5-15.69-26.26c-0.16-0.44-0.56-0.8-0.85-1.2
			c-1.3-5.5-2.6-11.01-3.9-16.51c-0.04-1.83-0.09-3.65-0.13-5.48c-0.13-0.18-0.26-0.36-0.39-0.54c-0.01-0.58-0.11-1.18,0-1.74
			c0.46-2.38-0.6-2.89-2.82-2.85c-8.06,0.14-16.12,0.09-24.17,0.11c-9.15,0-18.31,0-27.46,0c-9.16,0-18.32,0-27.48,0
			c-8.46-0.02-16.92-0.01-25.38-0.09c-1.5-0.01-2.04,0.47-2.05,1.98c-0.03,2.89,0.13,5.8-0.46,8.66c-0.83,5.56-2.19,11-3.76,16.39
			c-3.85,10.12-9.3,19.28-16.34,27.5c-2.15,2.17-4.3,4.34-6.45,6.51c-3.24,2.46-6.41,5.01-9.73,7.36
			c-5.47,3.87-11.64,6.37-17.8,8.88c-6.18,1.94-12.46,3.41-18.88,4.31c-2.87-0.29-5.69,0.29-8.53,0.44
			c-2.51-0.02-4.99-0.67-7.52-0.42c-6.64-0.64-13.05-2.32-19.41-4.24c-4.28-1.93-8.68-3.59-12.81-5.86
			c-5.31-2.92-10.06-6.6-14.73-10.42c-2.2-2.19-4.4-4.37-6.6-6.56c-5.51-6.69-10.37-13.79-13.85-21.78
			c-0.82-1.89-1.23-3.98-2.51-5.67c-1.85-6.38-3.39-12.82-4.11-19.44c0.28-1.91-0.39-3.78-0.3-5.68c0.07-1.52-0.53-1.99-2.02-1.97
			c-8.35,0.08-16.71,0.07-25.06,0.09c-0.91-0.02-1.82-0.05-2.72-0.06c-5.27-0.09-10.57,0.38-15.78-0.84c-5.72-2.49-9-6.75-9-13.09
			C-0.09,254.33-0.1,221.89,0,189.44c0.03-9.07,2.77-17.49,7.02-25.44c5.25-8.29,12-15.05,20.44-20.1c3.9-1.95,7.85-3.8,12.1-4.9
			c1.34-0.35,1.9-1.18,1.93-2.49c3.91-9.04,7.37-18.26,10.86-27.46c0.85-1.89,1.79-3.76,2.15-5.83c3.16-6.9,5.74-14.03,8.4-21.13
			c3.77-9.06,7.4-18.17,10.73-27.4c0.41-0.9,0.86-1.79,1.23-2.72c2.86-7.09,5.38-14.33,8.63-21.24
			c5.46-11.63,14.41-19.97,25.89-25.65c4.83-1.99,9.77-3.61,14.94-4.47c3.99-0.69,8.03-0.29,12.04-0.62
			c9.15,0.22,18.29,0.22,27.44,0c9.17,0.23,18.34,0.24,27.5,0c8.98,0.22,17.96,0.22,26.94,0c9.17,0.23,18.34,0.24,27.5,0
			c9.15,0.22,18.29,0.22,27.44,0c9.17,0.23,18.34,0.24,27.5,0c5.7,0.06,11.39,0.13,17.09,0.17c1.81,0.01,3.61,0.06,5.38,0.44
			c0,0,0.24,0.04,0.24,0.04l0.24-0.04c0.33,0.03,0.67,0.06,1,0.08c1.05,0.78,2.41,0.33,3.5,0.91c1.04,0.29,2.08,0.55,3.11,0.87
			c9.21,2.84,17.12,7.81,23.87,14.67c2.8,3.35,5.6,6.69,8.41,10.04c6.16,8.11,12.53,16.05,19.08,23.85
			c0.81,1.32,1.71,2.59,2.89,3.62c1.56,2.03,3.08,4.09,4.68,6.08c5.75,7.14,11.53,14.26,17.3,21.38c0.66,1.18,1.46,2.25,2.51,3.11
			c6.12,8.13,12.53,16.02,19.03,23.84c2.47,3.49,5.11,6.85,8.01,9.99c4.37,5.54,8.75,11.06,13.09,16.62c0.6,0.77,1.31,0.9,2.18,0.89
			c4.07-0.04,8.14-0.05,12.21-0.08c2.68,0.15,5.33,0.73,8.03,0.44c6.57,0.93,13.05,2.27,19.38,4.31
			c10.13,3.83,19.28,9.3,27.48,16.35c2.13,2.15,4.27,4.31,6.4,6.46c2.36,3.08,4.85,6.07,7.06,9.26
			C536.75,178.92,539.47,185.14,541.96,191.45z M197.82,82.09c0.02-7.06,0.04-14.11,0.05-21.17c0.01-6.55,0-6.55-6.59-6.21
			c-9.15,0-18.31,0-27.46,0c-9.16,0-18.32,0-27.48,0c-1.47,0.24-3.34-1.07-4.25,1.26c-3.42,8.71-6.88,17.4-10.33,26.09
			c-0.3,0.67-0.64,1.32-0.91,2.01c-3.35,8.49-6.69,16.98-10.03,25.47c-0.69,1.22-1.32,2.46-1.52,3.87
			c-3.39,7.1-5.91,14.55-8.98,21.78c-0.54,1.27,0.09,1.4,1.09,1.38c2.65-0.04,5.3-0.06,7.96-0.08c8.99,0,17.98,0,26.97,0
			c9.16,0,18.32,0,27.48,0c9.16,0,18.31,0,27.47,0c1.49,0.03,2.99-0.03,4.48,0.1c1.62,0.14,2.16-0.46,2.14-2.11
			c-0.08-8.47-0.07-16.94-0.08-25.41C197.82,100.07,197.82,91.08,197.82,82.09z M273.21,54.71c-9.16,0-18.32,0-27.48,0
			c-1.58-0.03-3.16,0.01-4.73-0.09c-1.38-0.09-1.9,0.4-1.89,1.83c0.07,8.55,0.07,17.1,0.09,25.65c0,9.15,0,18.3,0,27.46
			c-0.02,6.9-0.05,13.8-0.06,20.69c-0.01,6.56,0,6.56,6.59,6.24c9.16,0,18.32,0,27.48,0c9.16,0,18.31,0,27.47,0
			c9.16,0,18.32,0,27.47,0c8.99,0,17.98,0,26.97,0c8.36,0,16.72,0,25.42,0c-0.45-0.63-0.66-0.96-0.91-1.26
			c-7.1-8.91-14.18-17.83-21.3-26.72c-7.07-8.82-14.19-17.6-21.28-26.39c-2.73-3.88-5.69-7.57-8.87-11.1
			c-4.06-5.14-8.14-10.27-12.17-15.44c-0.58-0.75-1.24-0.97-2.13-0.96c-4.4,0.05-8.8,0.07-13.21,0.09
			C291.52,54.71,282.36,54.71,273.21,54.71z M369.08,300.81c-0.08,12.82,5.11,23.24,14.78,31.38c7.5,6.31,16.33,9.41,26.2,9.34
			c1.9-0.12,3.82-0.09,5.69-0.37c20.42-3.15,34.79-19.92,35.06-40.84c0.36-21.91-18.67-40.81-40.75-40.47
			C387.42,259.42,368.67,278.16,369.08,300.81z M177.33,300.32c0.3-22.29-18.85-41.2-40.99-40.47c-7.78-0.24-14.97,1.87-21.42,6.05
			c-12.6,8.16-19.05,19.86-19.32,34.92c-0.45,21.68,19.07,41.2,40.73,40.72c1.18,0.4,2.3-0.16,3.45-0.23
			C161.03,339.93,177.73,321.69,177.33,300.32z"/>
		<path class="st1" d="M323.65,0.62l-0.24,0.04c0,0-0.24-0.04-0.24-0.04C323.33,0.38,323.49,0.38,323.65,0.62z"/>
		<path class="st1" d="M328.06,305.79c-0.13-0.18-0.26-0.36-0.39-0.54C327.8,305.44,327.93,305.61,328.06,305.79z"/>
	</g>
</g>
</svg>
