<?xml version="1.0" encoding="utf-8"?>
<!-- Generator: Adobe Illustrator 25.4.1, SVG Export Plug-In . SVG Version: 6.00 Build 0)  -->
<svg version="1.1" id="Layer_1" xmlns="http://www.w3.org/2000/svg" xmlns:xlink="http://www.w3.org/1999/xlink" x="0px" y="0px"
	 viewBox="0 0 132.58 144.79" style="enable-background:new 0 0 132.58 144.79;" xml:space="preserve">
<style type="text/css">
	.st0{font-family:'Arvo-Bold';}
	.st1{font-size:33.5808px;}
	.st2{fill:#1D9E3E;}
</style>
<text transform="matrix(1 0 0 1 38.8716 140.5297)" class="st0 st1">boi</text>
<path class="st2" d="M66.25,15.02c-25.73,0-46.59,20.86-46.59,46.59c0,25.73,20.86,46.59,46.59,46.59s46.59-20.86,46.59-46.59
	C112.84,35.88,91.98,15.02,66.25,15.02z M97.44,41.75c1.13-1.13,2.98-1.15,4.11-0.02s1.15,2.94,0.02,4.06l-0.04,0.04
	c-0.56,0.57-1.29,0.86-2.04,0.86c-0.74,0-1.48-0.29-2.05-0.85C96.31,44.71,96.31,42.88,97.44,41.75z M35.25,79.05l-0.21,0.21
	c-0.56,0.58-1.31,0.85-2.05,0.85s-1.47-0.28-2.04-0.84c-1.14-1.13-1.14-2.96-0.01-4.09l0.21-0.21c1.13-1.14,2.96-1.14,4.09-0.01
	C36.38,76.09,36.38,77.92,35.25,79.05z M43.6,70.64l-0.21,0.21c-0.56,0.58-1.3,0.86-2.05,0.86c-0.74,0-1.47-0.28-2.04-0.84
	c-1.14-1.13-1.14-2.96-0.02-4.09l0.21-0.21c1.13-1.14,2.96-1.14,4.09-0.02C44.72,67.68,44.72,69.51,43.6,70.64z M51.95,62.24
	l-0.21,0.21c-0.55,0.57-1.3,0.85-2.05,0.85c-0.74,0-1.47-0.28-2.04-0.84c-1.14-1.13-1.14-2.96-0.01-4.09l0.21-0.21
	c1.13-1.14,2.96-1.14,4.09-0.01C53.08,59.28,53.08,61.11,51.95,62.24z M60.32,53.83l-0.21,0.21c-0.57,0.58-1.32,0.85-2.05,0.85
	c-0.74,0-1.47-0.28-2.04-0.84c-1.14-1.13-1.14-2.96-0.01-4.09l0.21-0.21c1.13-1.14,2.96-1.14,4.09-0.01
	C61.45,50.87,61.45,52.7,60.32,53.83z M64.44,41.6c1.13-1.13,2.94-1.15,4.06-0.02l0.04,0.04c1.13,1.13,1.13,2.96,0,4.09
	c-0.55,0.56-1.3,0.85-2.03,0.85c-0.74,0-1.48-0.29-2.05-0.85C63.33,44.58,63.31,42.73,64.44,41.6z M68.7,78.66l-0.04,0.04
	c-0.56,0.57-1.29,0.85-2.04,0.85c-0.74,0-1.48-0.29-2.05-0.85c-1.13-1.13-1.13-2.96,0-4.09l0.04-0.04c1.13-1.13,2.96-1.13,4.09,0
	S69.83,77.53,68.7,78.66z M72.65,49.81c1.13-1.13,2.94-1.15,4.06-0.02l0.04,0.04c1.13,1.13,1.13,2.96,0,4.09
	c-0.54,0.57-1.29,0.85-2.03,0.85c-0.74,0-1.48-0.29-2.05-0.85C71.54,52.79,71.52,50.94,72.65,49.81z M76.92,70.46l-0.04,0.04
	c-0.57,0.56-1.31,0.83-2.04,0.83c-0.75,0-1.49-0.29-2.05-0.86c-1.12-1.14-1.11-2.96,0.03-4.09l0.04-0.04
	c1.14-1.12,2.96-1.11,4.09,0.03C78.07,67.51,78.06,69.33,76.92,70.46z M85.14,62.25l-0.04,0.04c-0.58,0.55-1.31,0.83-2.04,0.83
	c-0.75,0-1.49-0.29-2.05-0.86l-0.12-0.12c-1.13-1.13-1.15-2.98-0.02-4.11c0.98-0.98,2.48-1.13,3.59-0.4
	c0.01,0.01,0.02,0.02,0.03,0.02c0.25,0.13,0.47,0.3,0.68,0.51C86.29,59.3,86.28,61.12,85.14,62.25z M93.18,70.35
	c-0.54,0.58-1.28,0.85-2.03,0.85c-0.74,0-1.48-0.29-2.05-0.85c-1.13-1.13-1.15-2.98-0.02-4.11s2.94-1.15,4.06-0.02l0.04,0.04
	C94.31,67.39,94.31,69.22,93.18,70.35z M93.36,54l-0.04,0.04c-0.56,0.58-1.31,0.86-2.04,0.86c-0.74,0-1.48-0.29-2.05-0.85
	c-1.13-1.13-1.13-2.96,0-4.09s2.98-1.15,4.11-0.02C94.47,51.07,94.49,52.88,93.36,54z M101.41,78.58c-0.56,0.56-1.29,0.85-2.03,0.85
	s-1.48-0.29-2.05-0.85c-1.13-1.13-1.15-2.98-0.02-4.11c1.13-1.13,2.94-1.15,4.06-0.02l0.04,0.04
	C102.54,75.62,102.54,77.45,101.41,78.58z"/>
</svg>
