<?xml version="1.0" encoding="utf-8"?>
<!-- Generator: Adobe Illustrator 25.4.1, SVG Export Plug-In . SVG Version: 6.00 Build 0)  -->
<svg version="1.1" id="Layer_1" xmlns="http://www.w3.org/2000/svg" xmlns:xlink="http://www.w3.org/1999/xlink" x="0px" y="0px"
	 viewBox="0 0 132.58 144.79" style="enable-background:new 0 0 132.58 144.79;" xml:space="preserve">
<style type="text/css">
	.st0{fill:#F6B1AD;}
	.st1{font-family:'Arial-Black';}
	.st2{font-size:28.4541px;}
</style>
<path class="st0" d="M40.03,49.15c-0.73-0.53-1.52-0.99-2.35-1.34c-1.66-0.72-3.48-1.08-5.32-1.11c-0.9,0-1.84,0.06-2.59,0.4
	c-0.38,0.17-0.67,0.42-0.84,0.74c-0.15,0.32-0.16,0.73-0.03,1.09l0.15,0.36c0.09,0.07,0.19,0.14,0.29,0.2
	c0.46,0.3,0.94,0.55,1.44,0.75c0.54,0.21,1.06,0.41,1.61,0.59c1.08,0.35,2.18,0.63,3.3,0.79c1.12,0.18,2.26,0.25,3.38,0.24
	c0.56,0,1.12-0.04,1.56-0.18c0.42-0.16,0.66-0.39,0.75-0.81C41.43,50.33,40.74,49.65,40.03,49.15z M40.03,49.15
	c-0.73-0.53-1.52-0.99-2.35-1.34c-1.66-0.72-3.48-1.08-5.32-1.11c-0.9,0-1.84,0.06-2.59,0.4c-0.38,0.17-0.67,0.42-0.84,0.74
	c-0.15,0.32-0.16,0.73-0.03,1.09l0.15,0.36c0.09,0.07,0.19,0.14,0.29,0.2c0.46,0.3,0.94,0.55,1.44,0.75
	c0.54,0.21,1.06,0.41,1.61,0.59c1.08,0.35,2.18,0.63,3.3,0.79c1.12,0.18,2.26,0.25,3.38,0.24c0.56,0,1.12-0.04,1.56-0.18
	c0.42-0.16,0.66-0.39,0.75-0.81C41.43,50.33,40.74,49.65,40.03,49.15z M102.81,41.32c-1.84-0.85-4.23-0.73-6.41-0.41
	c-2.2,0.38-4.33,1.19-6.3,2.31c-1.96,1.13-3.75,2.54-5.33,4.18c-0.28,0.29-0.55,0.6-0.82,0.91c0.11,0.14,0.21,0.27,0.32,0.4
	c0.73,0.91,1.44,1.8,2.21,2.61c0.38,0.4,0.78,0.78,1.18,1.11c0.33,0.26,0.79,0.48,1.28,0.65c0.97,0.33,2.06,0.47,3.14,0.48
	c2.16,0.01,4.43-0.45,6.3-1.46c0.34-0.19,0.67-0.39,0.98-0.62c-0.97,0.39-1.96,0.77-2.99,1.08c-1.15,0.36-2.4,0.59-3.61,0.68
	c-0.61,0.05-1.21,0.06-1.84,0.05c-0.31-0.01-0.62-0.03-0.97-0.08c-0.4-0.06-0.7-0.17-1.05-0.32c-0.34-0.16-0.68-0.37-0.99-0.7
	c-0.16-0.18-0.28-0.36-0.39-0.59c-0.1-0.25-0.16-0.49-0.16-0.74c-0.02-0.51,0.17-0.95,0.37-1.29c0.21-0.34,0.45-0.61,0.7-0.84
	c1.94-1.71,4.27-2.69,6.71-3.13c1.22-0.2,2.45-0.28,3.71-0.18c0.63,0.06,1.28,0.16,1.92,0.37c0.64,0.21,1.33,0.57,1.86,1.2
	c0.13,0.16,0.24,0.33,0.34,0.51c0.5-0.47,0.95-0.97,1.29-1.51c0.55-0.86,0.76-1.81,0.47-2.65C104.44,42.49,103.7,41.73,102.81,41.32
	z M101.3,48.13c-0.44-0.55-1.51-0.85-2.55-0.93c-1.07-0.08-2.19-0.03-3.26,0.15c-2.14,0.35-4.26,1.28-5.82,2.65
	c-0.36,0.32-0.57,0.69-0.55,0.85c-0.03,0.11,0.14,0.36,0.54,0.54c0.18,0.08,0.43,0.17,0.61,0.18c0.22,0.04,0.5,0.06,0.77,0.06
	c0.55,0.02,1.1,0,1.65-0.04c2.21-0.11,4.31-0.9,6.46-1.77c0.84-0.34,1.64-0.74,2.37-1.21c0-0.02,0-0.03-0.01-0.05
	C101.47,48.4,101.4,48.26,101.3,48.13z M65.11,10.38c-27.45,0-49.7,22.25-49.7,49.7s22.25,49.7,49.7,49.7s49.7-22.25,49.7-49.7
	S92.56,10.38,65.11,10.38z M105.58,46.83c-0.66,1.01-1.46,1.84-2.36,2.52c0,0.02,0,0.05-0.01,0.07c-0.25,0.8-0.63,1.33-1.04,1.85
	c-0.84,1.01-1.86,1.79-2.96,2.4c-1.1,0.61-2.31,1.04-3.5,1.3c-1.2,0.28-2.43,0.42-3.68,0.42c-1.25-0.01-2.5-0.17-3.73-0.59
	c-0.62-0.22-1.23-0.5-1.81-0.95c-0.5-0.41-0.94-0.84-1.36-1.28c-0.84-0.89-1.57-1.82-2.3-2.73c-0.02-0.03-0.05-0.06-0.08-0.09
	c-0.79,0.99-1.56,2.01-2.33,3.01c-2.77,3.69-5.43,7.57-6.85,11.91c-0.67,2.16-0.94,4.46-0.71,6.71c0.11,1.12,0.36,2.26,0.71,3.32
	c0.36,1.02,1.03,1.99,1.62,3s1.19,2.08,1.42,3.3c0.13,0.6,0.12,1.26-0.04,1.86c-0.15,0.6-0.35,1.18-0.75,1.7
	c-0.39,0.53-1.03,0.87-1.65,0.96c-0.62,0.11-1.23,0.06-1.81,0.01c-1.16-0.11-2.32-0.25-3.39,0.07l-1.59,0.74
	c-0.49,0.23-1.09,0.61-1.73,0.56c-0.6,0.02-1.21,0.01-1.81-0.15c-0.61-0.18-1.09-0.56-1.59-0.85c-1.02-0.58-2.14-0.98-3.31-1.15
	c-0.58-0.07-1.18-0.07-1.75,0.06c-0.58,0.13-1.1,0.43-1.59,0.76c0.48-0.34,1-0.67,1.58-0.81c0.57-0.17,1.18-0.18,1.77-0.13
	c1.19,0.14,2.34,0.51,3.4,1.06c0.53,0.29,1.01,0.65,1.55,0.78c0.55,0.13,1.14,0.13,1.72,0.1c0.58,0.03,1.04-0.3,1.59-0.57l1.6-0.79
	h0.02c1.18-0.38,2.4-0.25,3.55-0.18c1.13,0.09,2.36,0.06,2.96-0.83c0.31-0.42,0.49-0.96,0.6-1.49c0.12-0.53,0.12-1.07-0.01-1.6
	c-0.23-1.07-0.8-2.07-1.41-3.05c-0.6-0.99-1.3-1.93-1.76-3.11c-0.41-1.14-0.68-2.29-0.83-3.48c-0.31-2.38-0.04-4.82,0.64-7.11
	c1.43-4.59,4.1-8.56,6.84-12.33c0.83-1.1,1.64-2.21,2.5-3.3c-0.05-0.05-0.09-0.1-0.14-0.15c-0.12-0.13-0.37-0.32-0.58-0.49
	l-0.67-0.51c-1.84-1.34-3.79-2.56-5.81-3.6c-2.02-1.02-4.15-1.91-6.29-2.2c-2.21-0.23-4.51-0.22-6.72,0.15
	c-2.22,0.34-4.34,1.1-6.38,2.11c-1.03,0.5-2.03,1.07-3.13,1.59c-0.55,0.26-1.16,0.49-1.8,0.66c-0.72,0.15-1.33,0.11-1.96,0.11
	c-1.26-0.07-2.49-0.36-3.64-0.79c-1.15-0.43-2.22-0.99-3.26-1.55c-2.06-1.15-4.01-2.36-6.12-3c-1.06-0.31-2.11-0.5-3.24-0.53
	c-1.12-0.04-2.23,0.01-3.28,0.25c-1.04,0.25-2.03,0.67-2.74,1.37c-0.35,0.34-0.63,0.76-0.79,1.19c-0.18,0.43-0.19,0.88-0.11,1.36
	c0.17,0.95,0.79,1.87,1.54,2.63c0.41,0.42,0.83,0.83,1.28,1.2c-0.04-0.35,0.01-0.71,0.15-1.05c0.25-0.54,0.72-0.92,1.19-1.15
	c0.96-0.46,1.97-0.51,2.93-0.55c1.94-0.03,3.89,0.32,5.69,1.08c0.91,0.37,1.77,0.85,2.56,1.42c0.4,0.29,0.79,0.59,1.16,1
	c0.34,0.4,0.7,0.96,0.65,1.66v0.02L42.39,51c-0.06,0.35-0.21,0.73-0.48,1.04c-0.27,0.31-0.62,0.51-0.94,0.62
	c-0.67,0.23-1.29,0.25-1.9,0.27c-1.19,0.03-2.39-0.03-3.58-0.2c-1.18-0.17-2.36-0.43-3.49-0.79c-0.57-0.18-1.14-0.38-1.68-0.59
	c-0.09-0.03-0.17-0.07-0.26-0.11c0.02,0.04,0.04,0.07,0.07,0.11c0.52,0.73,1.18,1.36,1.95,1.86c1.53,1.01,3.38,1.42,5.22,1.63
	c0.92,0.08,1.87,0.13,2.77,0.06c0.92-0.11,1.83-0.31,2.72-0.59c1.79-0.55,3.5-1.36,5.34-1.83c0.92-0.23,1.89-0.38,2.82-0.19
	c0.94,0.13,1.77,0.65,2.45,1.3c-0.69-0.64-1.53-1.12-2.46-1.26c-0.92-0.16-1.87,0.02-2.76,0.28c-1.8,0.52-3.49,1.39-5.29,1.98
	c-0.9,0.31-1.83,0.54-2.78,0.67c-0.96,0.1-1.91,0.07-2.87,0.01c-1.89-0.17-3.84-0.55-5.5-1.59c-0.83-0.51-1.58-1.18-2.16-1.97
	c-0.25-0.34-0.48-0.69-0.67-1.05c-0.09-0.04-0.17-0.09-0.25-0.14c-1.05-0.66-1.97-1.46-2.81-2.3c-0.87-0.87-1.67-1.95-1.94-3.3
	c-0.13-0.66-0.11-1.42,0.15-2.08c0.24-0.66,0.63-1.23,1.1-1.71c0.94-0.97,2.18-1.49,3.39-1.79c1.22-0.3,2.45-0.36,3.66-0.34
	c1.19,0.01,2.47,0.2,3.64,0.55c2.38,0.7,4.43,2,6.43,3.09c1.01,0.55,2.02,1.07,3.05,1.44c1.04,0.37,2.1,0.61,3.17,0.67
	c0.54,0,1.09,0.01,1.53-0.08c0.48-0.13,0.97-0.31,1.47-0.55c1-0.47,2.02-1.06,3.1-1.59c2.14-1.06,4.45-1.9,6.84-2.28
	c2.39-0.4,4.79-0.43,7.21-0.18c2.5,0.32,4.73,1.29,6.87,2.34c2.13,1.08,4.15,2.32,6.08,3.73l0.72,0.54
	c0.24,0.19,0.45,0.35,0.74,0.62c0.23-0.28,0.47-0.55,0.72-0.82c1.64-1.74,3.51-3.26,5.57-4.49c2.07-1.22,4.34-2.13,6.73-2.58
	c1.19-0.22,2.41-0.31,3.63-0.31c1.22,0.04,2.51,0.2,3.72,0.78c1.2,0.57,2.27,1.57,2.75,2.93c0.23,0.68,0.28,1.43,0.15,2.13
	C106.2,45.63,105.92,46.26,105.58,46.83z M29.05,49.29c0.09,0.07,0.19,0.14,0.29,0.2c0.46,0.3,0.94,0.55,1.44,0.75
	c0.54,0.21,1.06,0.41,1.61,0.59c1.08,0.35,2.18,0.63,3.3,0.79c1.12,0.18,2.26,0.25,3.38,0.24c0.56,0,1.12-0.04,1.56-0.18
	c0.42-0.16,0.66-0.39,0.75-0.81c0.05-0.54-0.64-1.22-1.35-1.72c-0.73-0.53-1.52-0.99-2.35-1.34c-1.66-0.72-3.48-1.08-5.32-1.11
	c-0.9,0-1.84,0.06-2.59,0.4c-0.38,0.17-0.67,0.42-0.84,0.74c-0.15,0.32-0.16,0.73-0.03,1.09L29.05,49.29z M40.03,49.15
	c-0.73-0.53-1.52-0.99-2.35-1.34c-1.66-0.72-3.48-1.08-5.32-1.11c-0.9,0-1.84,0.06-2.59,0.4c-0.38,0.17-0.67,0.42-0.84,0.74
	c-0.15,0.32-0.16,0.73-0.03,1.09l0.15,0.36c0.09,0.07,0.19,0.14,0.29,0.2c0.46,0.3,0.94,0.55,1.44,0.75
	c0.54,0.21,1.06,0.41,1.61,0.59c1.08,0.35,2.18,0.63,3.3,0.79c1.12,0.18,2.26,0.25,3.38,0.24c0.56,0,1.12-0.04,1.56-0.18
	c0.42-0.16,0.66-0.39,0.75-0.81C41.43,50.33,40.74,49.65,40.03,49.15z M40.03,49.15c-0.73-0.53-1.52-0.99-2.35-1.34
	c-1.66-0.72-3.48-1.08-5.32-1.11c-0.9,0-1.84,0.06-2.59,0.4c-0.38,0.17-0.67,0.42-0.84,0.74c-0.15,0.32-0.16,0.73-0.03,1.09
	l0.15,0.36c0.09,0.07,0.19,0.14,0.29,0.2c0.46,0.3,0.94,0.55,1.44,0.75c0.54,0.21,1.06,0.41,1.61,0.59c1.08,0.35,2.18,0.63,3.3,0.79
	c1.12,0.18,2.26,0.25,3.38,0.24c0.56,0,1.12-0.04,1.56-0.18c0.42-0.16,0.66-0.39,0.75-0.81C41.43,50.33,40.74,49.65,40.03,49.15z"/>
<text transform="matrix(1 0 0 1 18.4914 142.9785)" class="st1 st2">GYNO</text>
</svg>
