<?xml version="1.0" encoding="utf-8"?>
<!-- Generator: Adobe Illustrator 25.4.1, SVG Export Plug-In . SVG Version: 6.00 Build 0)  -->
<svg version="1.1" id="Layer_1" xmlns="http://www.w3.org/2000/svg" xmlns:xlink="http://www.w3.org/1999/xlink" x="0px" y="0px"
	 viewBox="0 0 182.37 107.52" style="enable-background:new 0 0 182.37 107.52;" xml:space="preserve">
<style type="text/css">
	.st0{fill:#FFFFFF;}
	.st1{fill:#941915;}
	.st2{fill:#E8413C;}
	.st3{fill:#ED6B0A;}
	.st4{font-family:'CenturyGothicPro-Bold';}
	.st5{font-size:32.9778px;}
	.st6{enable-background:new    ;}
</style>
<g>
	<circle class="st0" cx="53.76" cy="53.76" r="53.76"/>
	<g>
		<path class="st1" d="M52.67,75C51,77.15,50,79.85,50,82.79c0,2.2,0.55,4.26,1.54,6.06c0.05,0.09,0.13,0.13,0.1,0.19
			c-12.63-1.15-22.69-11.78-22.69-24.71c0-3.1,0.57-6.06,1.61-8.8c0.97-2.57,2.36-4.94,4.09-7.02c-0.41,0.85-0.63,1.81-0.63,2.81
			c0,2.42,1.3,4.54,3.24,5.69h0.01c0.52,0.31,1.08,0.54,1.67,0.7c0.01,0,0.01,0.01,0.01,0.01c0.51,0.23,1.01,0.49,1.49,0.76
			c0.95,0.52,1.85,1.1,2.72,1.74c0.12,0.09,0.25,0.18,0.37,0.28c1.87,1.43,3.54,3.14,4.93,5.04c1.02,1.39,1.89,2.9,2.6,4.49
			c0.23,0.52,0.45,1.04,0.64,1.58C52.1,72.7,52.43,73.83,52.67,75L52.67,75z"/>
		<path class="st2" d="M78.56,64.33v0.16c-0.03,4.97-1.53,9.6-4.08,13.46c0,0,0,0,0,0.01c-4.44,6.73-12.06,11.17-20.72,11.17
			c-0.71,0-1.42-0.03-2.11-0.09h-0.01c-0.04-0.06-0.07-0.12-0.1-0.18C50.56,87.06,50,84.99,50,82.8c0-2.93,0.99-5.63,2.67-7.79V75
			c1.12-1.45,5.86-4.04,6.61-4.45c0.01-0.01,0.01-0.01,0.01-0.01c3.41-1.86,5.57-5.44,5.57-9.58l-0.09-0.41
			c-0.01-1.59-0.11-2.77-0.73-4.13c0-0.01-0.01-0.01-0.01-0.02c-0.51-1.44-1.31-2.74-2.35-3.81c-0.39-0.41-0.82-0.79-1.28-1.13
			c-0.36-0.27-0.73-0.48-1.12-0.7c-0.12-0.82-0.19-1.69-0.19-2.54c0-1.21,0.13-2.38,0.37-3.5v-0.01c0.32-1.45,0.82-2.84,1.49-4.12
			c2.01-3.86,5.5-6.84,9.72-8.15c-2.52,2.85-4.06,6.56-4.14,10.63c-0.01,0.1-0.01,0.2-0.01,0.3c0,3.78,1.27,7.27,3.42,10.05
			c2.01,2.64,4.81,4.65,8.05,5.68C78.37,60.79,78.56,62.54,78.56,64.33z"/>
		<path class="st3" d="M65.01,60.89c0.24,3.37-2.06,7.83-5.73,9.66c-0.77,0.38-5.49,3-6.61,4.45c-0.24-1.16-0.57-2.29-0.96-3.39
			c-0.2-0.53-0.41-1.06-0.64-1.58c-0.71-1.59-1.58-3.1-2.6-4.49c-1.4-1.91-3.06-3.61-4.93-5.04c-0.12-0.1-0.25-0.19-0.37-0.28
			c-0.86-0.64-1.77-1.22-2.72-1.74c-0.08-0.18-0.16-0.37-0.23-0.55c-0.84-2.11-1.31-4.53-1.31-7.1c0-2.16,0.17-3.63,0.77-5.48
			c0.06-0.19,0.83-2.97,2.71-5.85c1-1.53,4.16-4.84,5.45-6.34c1.24-1.44,2.94-4.15,2.99-6.99c0.04-2.16-0.63-5.95-1.62-7.78
			c2.45,0.51,6.99,4.23,7.13,8.85c0.07,2.33-0.48,4.92-1.15,7.18c-0.31,1.02-0.52,2.1-0.63,3.21c-0.05,0.55-1.25,10.1,4.59,13.06
			c3.87,1.96,4.89,5.73,4.89,5.73C64.66,57.78,64.9,59.3,65.01,60.89z"/>
	</g>
</g>
<g>
	<text transform="matrix(1 0 0 1 85.2902 84.4888)" class="st4 st5">Eldler</text>
	<g class="st6">
		<path d="M181.62,60.99c0,0.82-0.2,1.58-0.61,2.28c-0.41,0.7-0.97,1.26-1.68,1.67c-0.71,0.41-1.47,0.61-2.3,0.61
			c-0.82,0-1.58-0.2-2.29-0.61c-0.71-0.41-1.27-0.97-1.68-1.67c-0.41-0.71-0.61-1.47-0.61-2.29c0-0.82,0.2-1.58,0.61-2.29
			c0.41-0.71,0.97-1.26,1.68-1.67c0.71-0.41,1.47-0.61,2.29-0.61s1.59,0.21,2.3,0.61c0.71,0.41,1.27,0.97,1.68,1.67
			C181.42,59.41,181.62,60.17,181.62,60.99z M180.67,61c0-1.01-0.35-1.87-1.06-2.58c-0.71-0.71-1.56-1.06-2.57-1.06
			c-1.01,0-1.87,0.35-2.58,1.06c-0.71,0.71-1.07,1.56-1.07,2.56c0,0.65,0.16,1.25,0.48,1.8s0.76,0.99,1.33,1.32
			c0.57,0.32,1.17,0.49,1.83,0.49c0.65,0,1.25-0.16,1.82-0.48c0.57-0.32,1.01-0.76,1.33-1.31S180.67,61.64,180.67,61z M175.14,58.49
			h2.22c0.47,0,0.81,0.05,1.03,0.16c0.22,0.1,0.4,0.27,0.53,0.49s0.2,0.49,0.2,0.81c0,0.27-0.04,0.49-0.12,0.66
			c-0.08,0.17-0.24,0.34-0.46,0.5c0.18,0.1,0.31,0.22,0.38,0.35c0.07,0.13,0.11,0.36,0.12,0.69c0.03,0.62,0.06,0.98,0.08,1.09
			c0.03,0.1,0.1,0.2,0.21,0.29h-1.26c-0.06-0.14-0.09-0.25-0.11-0.34c-0.02-0.09-0.03-0.25-0.03-0.47
			c-0.01-0.44-0.04-0.72-0.07-0.82c-0.04-0.1-0.1-0.18-0.19-0.23s-0.27-0.08-0.54-0.08h-0.89v1.95h-1.1V58.49z M176.24,59.45v1.19
			h0.92c0.36,0,0.59-0.05,0.71-0.14c0.12-0.1,0.17-0.25,0.17-0.46c0-0.21-0.06-0.36-0.17-0.45c-0.11-0.09-0.35-0.13-0.7-0.13H176.24
			z"/>
	</g>
</g>
</svg>
