<svg xmlns="http://www.w3.org/2000/svg" xmlns:xlink="http://www.w3.org/1999/xlink" viewBox="0 0 196.23 239.98"><defs><style>.cls-1,.cls-80{fill:#db9780;}.cls-2{fill:#895029;}.cls-3,.cls-5,.cls-6,.cls-7{fill:#c48776;}.cls-3{opacity:0.34;}.cls-4{fill:url(#linear-gradient);}.cls-6{opacity:0.19;}.cls-7{opacity:0.57;}.cls-8{fill:#a43;stroke-linecap:round;}.cls-10,.cls-12,.cls-79,.cls-8,.cls-80,.cls-9{stroke:#000;stroke-miterlimit:10;}.cls-13,.cls-9{fill:#fff;}.cls-80,.cls-9{stroke-width:0.5px;}.cls-10,.cls-12{stroke-width:0.75px;}.cls-10{fill:url(#radial-gradient);}.cls-11,.cls-13,.cls-84{opacity:0.7;}.cls-11{fill:url(#radial-gradient-2);}.cls-12{fill:url(#radial-gradient-3);}.cls-14{fill:url(#linear-gradient-2);}.cls-15{fill:#94562a;}.cls-16{fill:url(#linear-gradient-3);}.cls-17{fill:url(#linear-gradient-4);}.cls-18{fill:url(#linear-gradient-5);}.cls-19{fill:url(#linear-gradient-6);}.cls-20{fill:url(#linear-gradient-7);}.cls-21{fill:url(#linear-gradient-8);}.cls-22{fill:url(#linear-gradient-9);}.cls-23{fill:url(#linear-gradient-10);}.cls-24{fill:#bc7f52;}.cls-25{fill:url(#linear-gradient-11);}.cls-26{fill:url(#linear-gradient-12);}.cls-27{fill:url(#linear-gradient-13);}.cls-28{fill:url(#linear-gradient-14);}.cls-29{fill:url(#linear-gradient-15);}.cls-30{fill:url(#linear-gradient-16);}.cls-31{fill:url(#linear-gradient-17);}.cls-32{fill:url(#linear-gradient-18);}.cls-33{fill:url(#linear-gradient-19);}.cls-34{fill:url(#linear-gradient-20);}.cls-35{fill:url(#linear-gradient-21);}.cls-36{fill:url(#linear-gradient-22);}.cls-37{fill:url(#linear-gradient-23);}.cls-38{fill:url(#linear-gradient-24);}.cls-39{fill:url(#linear-gradient-25);}.cls-40{fill:url(#linear-gradient-26);}.cls-41{fill:url(#linear-gradient-27);}.cls-42{fill:url(#linear-gradient-28);}.cls-43{fill:url(#linear-gradient-29);}.cls-44{fill:url(#linear-gradient-30);}.cls-45{fill:url(#linear-gradient-31);}.cls-46{fill:url(#linear-gradient-32);}.cls-47{fill:url(#linear-gradient-33);}.cls-48{fill:url(#linear-gradient-34);}.cls-49{fill:url(#linear-gradient-35);}.cls-50{fill:url(#linear-gradient-36);}.cls-51{fill:url(#linear-gradient-37);}.cls-52{fill:url(#linear-gradient-38);}.cls-53{fill:url(#linear-gradient-39);}.cls-54{fill:url(#linear-gradient-40);}.cls-55{fill:url(#linear-gradient-41);}.cls-56{fill:url(#linear-gradient-42);}.cls-57{fill:url(#linear-gradient-43);}.cls-58{fill:url(#linear-gradient-44);}.cls-59{fill:url(#linear-gradient-45);}.cls-60{fill:url(#linear-gradient-46);}.cls-61{fill:url(#linear-gradient-47);}.cls-62{fill:url(#linear-gradient-48);}.cls-63{fill:url(#linear-gradient-49);}.cls-64{fill:url(#linear-gradient-50);}.cls-65{fill:#bd9874;}.cls-66{fill:none;}.cls-67{fill:url(#linear-gradient-51);}.cls-68{fill:url(#linear-gradient-52);}.cls-69{fill:url(#linear-gradient-53);}.cls-70{fill:url(#linear-gradient-54);}.cls-71{fill:url(#linear-gradient-55);}.cls-72{fill:url(#linear-gradient-56);}.cls-73{fill:url(#linear-gradient-57);}.cls-74{fill:url(#linear-gradient-58);}.cls-75{fill:url(#linear-gradient-59);}.cls-76{fill:url(#linear-gradient-60);}.cls-77{fill:url(#linear-gradient-61);}.cls-78{fill:url(#linear-gradient-62);}.cls-81{fill:#a0472e;}.cls-82{fill:#d8775d;}.cls-83{fill:#7f3726;}.cls-84{fill:url(#radial-gradient-4);}</style><linearGradient id="linear-gradient" x1="42.29" y1="83.95" x2="109.77" y2="106.68" gradientUnits="userSpaceOnUse"><stop offset="0" stop-color="#ba806c" stop-opacity="0.7"/><stop offset="0.29" stop-color="#c78974" stop-opacity="0.82"/><stop offset="0.57" stop-color="#d2917b" stop-opacity="0.92"/><stop offset="0.82" stop-color="#d9957f" stop-opacity="0.98"/><stop offset="1" stop-color="#db9780"/></linearGradient><radialGradient id="radial-gradient" cx="89.23" cy="125.38" r="4.98" gradientUnits="userSpaceOnUse"><stop offset="0" stop-color="#ced5ff"/><stop offset="0.08" stop-color="#c4cdf7"/><stop offset="0.71" stop-color="#7a96be"/><stop offset="1" stop-color="#5d80a8"/></radialGradient><radialGradient id="radial-gradient-2" cx="88.95" cy="124.22" r="2.46" gradientUnits="userSpaceOnUse"><stop offset="0" stop-color="#fff"/><stop offset="0.59" stop-color="#fff" stop-opacity="0.81"/><stop offset="1" stop-color="#fff" stop-opacity="0.7"/></radialGradient><radialGradient id="radial-gradient-3" cx="151.84" cy="127.89" r="4.87" xlink:href="#radial-gradient"/><linearGradient id="linear-gradient-2" x1="188.64" y1="64.8" x2="205.4" y2="64.8" gradientUnits="userSpaceOnUse"><stop offset="0" stop-color="#bc7f52"/><stop offset="0.95" stop-color="#94562a"/></linearGradient><linearGradient id="linear-gradient-3" x1="192.8" y1="71.04" x2="212.86" y2="71.04" xlink:href="#linear-gradient-2"/><linearGradient id="linear-gradient-4" x1="186.9" y1="66.06" x2="209.43" y2="66.06" xlink:href="#linear-gradient-2"/><linearGradient id="linear-gradient-5" x1="200.66" y1="105.22" x2="211.25" y2="105.22" xlink:href="#linear-gradient-2"/><linearGradient id="linear-gradient-6" x1="185.44" y1="74.93" x2="209.96" y2="74.93" xlink:href="#linear-gradient-2"/><linearGradient id="linear-gradient-7" x1="176.05" y1="61.91" x2="198" y2="61.91" xlink:href="#linear-gradient-2"/><linearGradient id="linear-gradient-8" x1="188.64" y1="66.6" x2="209.43" y2="66.6" xlink:href="#linear-gradient-2"/><linearGradient id="linear-gradient-9" x1="200.14" y1="81.68" x2="215.34" y2="81.68" xlink:href="#linear-gradient-2"/><linearGradient id="linear-gradient-10" x1="185.02" y1="94.17" x2="211.25" y2="94.17" xlink:href="#linear-gradient-2"/><linearGradient id="linear-gradient-11" x1="186.9" y1="106.6" x2="208.73" y2="106.6" xlink:href="#linear-gradient-2"/><linearGradient id="linear-gradient-12" x1="176.61" y1="44.82" x2="192.73" y2="44.82" xlink:href="#linear-gradient-2"/><linearGradient id="linear-gradient-13" x1="174.46" y1="48.29" x2="198" y2="48.29" xlink:href="#linear-gradient-2"/><linearGradient id="linear-gradient-14" x1="175.01" y1="49.48" x2="200.14" y2="49.48" xlink:href="#linear-gradient-2"/><linearGradient id="linear-gradient-15" x1="180.68" y1="63.59" x2="213.67" y2="63.59" xlink:href="#linear-gradient-2"/><linearGradient id="linear-gradient-16" x1="173.54" y1="57" x2="209.61" y2="57" xlink:href="#linear-gradient-2"/><linearGradient id="linear-gradient-17" x1="147.03" y1="34.68" x2="157.55" y2="34.68" xlink:href="#linear-gradient-2"/><linearGradient id="linear-gradient-18" x1="167.65" y1="40.35" x2="188.4" y2="40.35" xlink:href="#linear-gradient-2"/><linearGradient id="linear-gradient-19" x1="163.78" y1="42.79" x2="197.58" y2="42.79" xlink:href="#linear-gradient-2"/><linearGradient id="linear-gradient-20" x1="158.61" y1="40.83" x2="190.02" y2="40.83" xlink:href="#linear-gradient-2"/><linearGradient id="linear-gradient-21" x1="153.67" y1="39.78" x2="184.95" y2="39.78" xlink:href="#linear-gradient-2"/><linearGradient id="linear-gradient-22" x1="148.02" y1="36.72" x2="186.34" y2="36.72" xlink:href="#linear-gradient-2"/><linearGradient id="linear-gradient-23" x1="30.2" y1="123.11" x2="35.76" y2="123.11" xlink:href="#linear-gradient-2"/><linearGradient id="linear-gradient-24" x1="28.65" y1="100.63" x2="44.56" y2="100.63" xlink:href="#linear-gradient-2"/><linearGradient id="linear-gradient-25" x1="33.26" y1="104.16" x2="45.73" y2="104.16" xlink:href="#linear-gradient-2"/><linearGradient id="linear-gradient-26" x1="27.74" y1="71.14" x2="57.04" y2="71.14" xlink:href="#linear-gradient-2"/><linearGradient id="linear-gradient-27" x1="25.78" y1="109.46" x2="48.14" y2="109.46" xlink:href="#linear-gradient-2"/><linearGradient id="linear-gradient-28" x1="31.71" y1="120.52" x2="46.39" y2="120.52" xlink:href="#linear-gradient-2"/><linearGradient id="linear-gradient-29" x1="60.13" y1="41.79" x2="81.61" y2="41.79" xlink:href="#linear-gradient-2"/><linearGradient id="linear-gradient-30" x1="67.33" y1="43.27" x2="88.19" y2="43.27" xlink:href="#linear-gradient-2"/><linearGradient id="linear-gradient-31" x1="56.18" y1="45.69" x2="70.3" y2="45.69" xlink:href="#linear-gradient-2"/><linearGradient id="linear-gradient-32" x1="21.32" y1="88.71" x2="50.7" y2="88.71" xlink:href="#linear-gradient-2"/><linearGradient id="linear-gradient-33" x1="35.95" y1="59.84" x2="60.91" y2="59.84" xlink:href="#linear-gradient-2"/><linearGradient id="linear-gradient-34" x1="75.64" y1="30.55" x2="87.59" y2="30.55" xlink:href="#linear-gradient-2"/><linearGradient id="linear-gradient-35" x1="36.58" y1="51.67" x2="66.41" y2="51.67" xlink:href="#linear-gradient-2"/><linearGradient id="linear-gradient-36" x1="28.97" y1="53.94" x2="68.48" y2="53.94" xlink:href="#linear-gradient-2"/><linearGradient id="linear-gradient-37" x1="69.73" y1="34.46" x2="83.09" y2="34.46" xlink:href="#linear-gradient-2"/><linearGradient id="linear-gradient-38" x1="69.11" y1="35.87" x2="101.69" y2="35.87" xlink:href="#linear-gradient-2"/><linearGradient id="linear-gradient-39" x1="54.69" y1="34.54" x2="116.82" y2="34.54" xlink:href="#linear-gradient-2"/><linearGradient id="linear-gradient-40" x1="147.68" y1="15.35" x2="157.7" y2="15.35" xlink:href="#linear-gradient-2"/><linearGradient id="linear-gradient-41" x1="147.03" y1="17.02" x2="154.97" y2="17.02" xlink:href="#linear-gradient-2"/><linearGradient id="linear-gradient-42" x1="148.02" y1="17.47" x2="167.38" y2="17.47" xlink:href="#linear-gradient-2"/><linearGradient id="linear-gradient-43" x1="120.63" y1="17.76" x2="164.25" y2="17.76" xlink:href="#linear-gradient-2"/><linearGradient id="linear-gradient-44" x1="86.11" y1="39.25" x2="110.71" y2="39.25" xlink:href="#linear-gradient-2"/><linearGradient id="linear-gradient-45" x1="113.84" y1="18.85" x2="126.69" y2="18.85" xlink:href="#linear-gradient-2"/><linearGradient id="linear-gradient-46" x1="107.57" y1="39.38" x2="122.04" y2="39.38" xlink:href="#linear-gradient-2"/><linearGradient id="linear-gradient-47" x1="133.67" y1="22.05" x2="124.5" y2="56.38" xlink:href="#linear-gradient-2"/><linearGradient id="linear-gradient-48" x1="135.07" y1="24.66" x2="143.2" y2="44.93" xlink:href="#linear-gradient-2"/><linearGradient id="linear-gradient-49" x1="137.57" y1="40.33" x2="151.86" y2="40.33" xlink:href="#linear-gradient-2"/><linearGradient id="linear-gradient-50" x1="145.26" y1="40.37" x2="161.5" y2="40.37" xlink:href="#linear-gradient-2"/><linearGradient id="linear-gradient-51" x1="120.32" y1="38.93" x2="143.09" y2="38.93" xlink:href="#linear-gradient-2"/><linearGradient id="linear-gradient-52" x1="109.75" y1="42.53" x2="114.95" y2="55.49" xlink:href="#linear-gradient-2"/><linearGradient id="linear-gradient-53" x1="120.8" y1="23.84" x2="130.29" y2="47.5" xlink:href="#linear-gradient-2"/><linearGradient id="linear-gradient-54" x1="160.93" y1="4.28" x2="160.93" y2="4.28" xlink:href="#linear-gradient-2"/><linearGradient id="linear-gradient-55" x1="60.13" y1="44.83" x2="84.61" y2="44.83" xlink:href="#linear-gradient-2"/><linearGradient id="linear-gradient-56" x1="21.95" y1="97.78" x2="50.93" y2="97.78" xlink:href="#linear-gradient-2"/><linearGradient id="linear-gradient-57" x1="21.21" y1="127.34" x2="21.21" y2="127.34" xlink:href="#linear-gradient-2"/><linearGradient id="linear-gradient-58" x1="23.64" y1="104.47" x2="49.17" y2="104.47" xlink:href="#linear-gradient-2"/><linearGradient id="linear-gradient-59" x1="171.03" y1="47.16" x2="196.66" y2="47.16" xlink:href="#linear-gradient-2"/><linearGradient id="linear-gradient-60" x1="177.93" y1="76.7" x2="217.55" y2="76.7" xlink:href="#linear-gradient-2"/><linearGradient id="linear-gradient-61" x1="173.54" y1="53.71" x2="205.09" y2="53.71" xlink:href="#linear-gradient-2"/><linearGradient id="linear-gradient-62" x1="187.64" y1="116.2" x2="203.08" y2="116.2" xlink:href="#linear-gradient-2"/><radialGradient id="radial-gradient-4" cx="127.77" cy="191.14" r="6" xlink:href="#radial-gradient-2"/></defs><g id="ansikte"><path class="cls-1" d="M106.73,210.11c-.66,1.3-5.51,1-5.51,1-5.66-.84-10-6.41-10.48-7.65-.6-1.65-5.75-10.84-6.83-12.68s.09-7.9,3.06-6.21c0,0,6.06,5.38,17.17,8.59l0,0s-1.82,5.37-1.26,6.36,4.12,4.19,4.36,5.18S108.26,207.11,106.73,210.11Z" transform="translate(-21.32 -2.47)"/><path class="cls-1" d="M156.71,194.44c-1.13,2.83-2.54,10-3.81,11.72s-8.14,6.58-11.5,6.64c-8.12.14-6.25-4.8-6.67-6.35s2.92-5.09,3.17-8c.14-1.71-2.12-3.1-4.06-4,9.67-1.85,13.81-5.65,15.49-7.3a4.56,4.56,0,0,0,.72-.39c1.55-1.18,7.79-.07,8.21,1.29S157.84,191.62,156.71,194.44Z" transform="translate(-21.32 -2.47)"/><path class="cls-2" d="M165.18,186.72s-1-5.41-4.38-8.65c-3.1-1.13-23-8.33-25.27-9.32s-7.34-.14-10,1-9.88-.28-12.28-1.41-5.08,0-7.2,1.27S89,174.4,83.58,175.1s-8.19,6.07-8.89,11.62c-2.12-.34-23.24-17.68-30-23.13.13,6.07.41,11.63.85,16.44,0,.18,0,.36.05.54a65.79,65.79,0,0,0,9.22,25.73c8.1,13.18,45.18,36.14,58.35,36.14S172.24,228.7,185,205.55c3.26-5.88,5.24-14.07,6.37-23.07.64-5.1,1-10.47,1.19-15.83C187.32,170.94,168.76,184.83,165.18,186.72Zm-58.45,23.39c-.7,1.27-5.51,1-5.52,1a13,13,0,0,1-7.65-4.65c-2.09-2.43-3.11-5.67-4.85-8.34-1.59-2.44-3.33-4.82-4.8-7.34-1.09-1.83.09-7.9,3.06-6.21,0,0,6.06,5.38,17.17,8.59l0,0c-.56,1.63-1.9,4.58-1.26,6.27a3,3,0,0,0,.59.88l2.28,2.72C107.16,204.67,107.84,208.12,106.73,210.11Zm50-15.67c-1.13,2.83-2.54,10-3.81,11.72s-8.14,6.58-11.5,6.64c-1.64,0-3.85,0-5-1.38-3.15-3.57,1.22-9.29,1.53-13,.14-1.71-2.12-3.1-4.06-4,9.67-1.85,13.81-5.65,15.49-7.3a4.56,4.56,0,0,0,.72-.39c1.55-1.18,7.79-.07,8.21,1.29S157.84,191.62,156.71,194.44Z" transform="translate(-21.32 -2.47)"/><path class="cls-1" d="M192.6,166.65c-5.28,4.29-23.84,18.18-27.42,20.07,0,0-1-5.41-4.38-8.65-3.1-1.13-23-8.33-25.27-9.32s-7.34-.14-10,1-9.88-.28-12.28-1.41-5.08,0-7.2,1.27S89,174.4,83.58,175.1s-8.19,6.07-8.89,11.62c-2.12-.34-23.24-17.68-30-23.13-.23-10.37,0-22.19.56-34.1,0-.61.07-1.23.1-1.84A417.55,417.55,0,0,1,49.7,84.14C54.4,55.53,71,51.2,76.05,50.63s38.76,4.65,44.59,4.65,28.44-3.15,42.56-3,16.38,12.05,18.45,13.94,8.47,49.12,8.85,53.27c0,.1,0,.24,0,.41v0c.07.65.19,1.78.33,3.29A345.6,345.6,0,0,1,192.6,166.65Z" transform="translate(-21.32 -2.47)"/><path class="cls-3" d="M147.4,161.64c.16.39,1.36,1,1.7,1.32.64.58,1.29,1.17,2,1.74,1.32,1.16,2.66,2.28,4,3.33a36.8,36.8,0,0,0,4.73,3.07c1.56.84,3.53,1.25,4.86,2.4a6.48,6.48,0,0,1-4.84.35c-2.9-.79-5.1-2.95-7.3-4.87a15.13,15.13,0,0,1-3.06-3.13A28.44,28.44,0,0,1,147.4,161.64Z" transform="translate(-21.32 -2.47)"/><path class="cls-4" d="M106.83,56.66c-.73.67-1.45,1.33-2.1,2-2.42,2.51-4.77,5.1-6.94,7.84-5.17,6.55-8,13.6-10.63,21.4-1.85,5.47-3.12,9.56-7.28,13.8-7.3,7.45-13.48,15.77-20.66,23.33a38,38,0,0,0-5.48,6.72c-1.59,2.73-2.17,5.9-3.5,8.74-2.3,4.93-7,2.25-10.74.31l2.9-64.66L63.11,44,101,45.42c1.19,0,3.72,2.64,4.67,3.32,1.68,1.19,3.35,2.42,5.06,3.57A20.89,20.89,0,0,1,106.83,56.66Z" transform="translate(-21.32 -2.47)"/><path class="cls-3" d="M91,164.67A18.37,18.37,0,0,0,88.83,166c-1.36,1.2-2.68,2.42-4.12,3.54-1.22,1-3.27,1.79-4,3.21,4.35.45,7.82-2.26,10.61-5.29.69-.76,1.9-2.09,1.74-3.18C93,163.8,92,164.16,91,164.67Z" transform="translate(-21.32 -2.47)"/><path class="cls-5" d="M127.06,165.46a7.9,7.9,0,0,1,3.16-.25c.94,0,2.53-.86,4-1,.73-.07-4.39-1.58-5.7-1.19-1,.31-3.38,3.1-3.38,3.1Z" transform="translate(-21.32 -2.47)"/><path class="cls-5" d="M107.05,162.58s2.5.9,3,1a25.1,25.1,0,0,1,4.2,1.87,14.93,14.93,0,0,0,4.39,1.14c.31-.13-3-3.32-3-3.32s-2.52-1.88-4.33-1.83a19,19,0,0,0-4.4.92Z" transform="translate(-21.32 -2.47)"/><path class="cls-6" d="M164.69,137.78c-.88.32-1.77.65-2.68.93l-1.27.35a13.4,13.4,0,0,1-4,.43l-1.21-.07a50.9,50.9,0,0,1-7.79-.78,15.09,15.09,0,0,1-6.6-2.89,1,1,0,0,1-.16-.12,2.07,2.07,0,0,1-.54-.64.67.67,0,0,1-.06-.12c-.35-1,.26-1.23,1-1.17,1.7.14,3.1,1.32,4.64,1.92a25.28,25.28,0,0,0,7.4,1.58C157.12,137.46,161.07,136.94,164.69,137.78Z" transform="translate(-21.32 -2.47)"/><path class="cls-7" d="M162.3,138.62l-1.56.44a16.19,16.19,0,0,1-5.19.36,50.9,50.9,0,0,1-7.79-.78,15.09,15.09,0,0,1-6.6-2.89,1,1,0,0,1-.16-.12,2.07,2.07,0,0,1-.54-.64l1.38-.17s9.65,3.88,11.55,3.62a69.74,69.74,0,0,1,7.58,0l1,.25Z" transform="translate(-21.32 -2.47)"/><path class="cls-6" d="M80.7,136.58c.75.26,1.51.53,2.28.75.36.1.71.2,1.08.28a11.68,11.68,0,0,0,3.38.35l1-.05a47.25,47.25,0,0,0,6.61-.63,13.23,13.23,0,0,0,5.61-2.33l.13-.1a1.63,1.63,0,0,0,.46-.52.2.2,0,0,0,0-.09c.81-1.54-2.18-.5-2.74-.27a27,27,0,0,1-10.19,2.25c-1.35,0-2.69-.06-4,0a12.76,12.76,0,0,0-2.14.14C81.77,136.41,81.17,136.74,80.7,136.58Z" transform="translate(-21.32 -2.47)"/><path class="cls-7" d="M84.45,136.88a8,8,0,0,0,1.21.35,19.16,19.16,0,0,0,5.61.27,35.18,35.18,0,0,0,5.87-.75,10.54,10.54,0,0,0,5.74-2.78l-1.17-.16Q98.59,135,95.4,136c-3.19,1-6.59.58-9.9.79A7.19,7.19,0,0,0,84.45,136.88Z" transform="translate(-21.32 -2.47)"/><path class="cls-2" d="M132.24,113.55s9.6-6,14.3-6.07,23.62,1.13,26.26,2,8,3.47,8,3.47-17.22,2.27-19.29,2.74-17,.57-19.12,1.41-6.48.33-6.48.33l-3.67-3.34" transform="translate(-21.32 -2.47)"/><path class="cls-2" d="M110.3,113.69c-1.74-1.08-3.54-2.07-5.37-3a35.49,35.49,0,0,0-5.84-2.52,20,20,0,0,0-6.55-.49c-3.73.1-7.56.26-11.32.54a62.85,62.85,0,0,0-11.13,1.39A44.82,44.82,0,0,0,61.74,113L77,115.19c3.4.48,6.81.82,10.23,1s6.72.16,10,.54c1.93.22,3.82.83,5.75.91a24.76,24.76,0,0,0,3.65-.14l3.67-3.34" transform="translate(-21.32 -2.47)"/><path class="cls-2" d="M134.78,114.51a.88.88,0,0,1-1.12-.24,1.33,1.33,0,0,1-.06-1.25,3.22,3.22,0,0,1,.62-1,4,4,0,0,1,.84-.74c-.15.35-.36.64-.53,1a10.14,10.14,0,0,0-.47.93,1.2,1.2,0,0,0-.08.86A.9.9,0,0,0,134.78,114.51Z" transform="translate(-21.32 -2.47)"/><path class="cls-2" d="M135.65,112.79a2.62,2.62,0,0,1-.9.66,2.43,2.43,0,0,1-1.13.3.84.84,0,0,1-.38-.09.54.54,0,0,1-.24-.42,1,1,0,0,1,.21-.62,3,3,0,0,1,.78-.81c-.14.35-.32.67-.44,1a1.07,1.07,0,0,0-.08.41s0,0,0,0a.38.38,0,0,0,.15,0,4,4,0,0,0,1-.17A10.17,10.17,0,0,0,135.65,112.79Z" transform="translate(-21.32 -2.47)"/><path class="cls-2" d="M134.8,113.34a3.08,3.08,0,0,1-2,1,.69.69,0,0,1-.37-.1.51.51,0,0,1-.25-.41,1,1,0,0,1,.21-.62,3.17,3.17,0,0,1,.78-.81c-.14.34-.32.66-.44,1a1,1,0,0,0-.08.41s0,0,0,0l.15,0a4.74,4.74,0,0,0,1-.16A10,10,0,0,0,134.8,113.34Z" transform="translate(-21.32 -2.47)"/><path class="cls-2" d="M107.75,113.43a10.17,10.17,0,0,0,1,.3,4.64,4.64,0,0,0,1,.16l.14,0s0,0,0,0a.89.89,0,0,0-.08-.41c-.12-.32-.29-.63-.44-1a2.87,2.87,0,0,1,.78.81,1.09,1.09,0,0,1,.22.62.54.54,0,0,1-.25.41.72.72,0,0,1-.38.1,2.56,2.56,0,0,1-1.13-.3A2.62,2.62,0,0,1,107.75,113.43Z" transform="translate(-21.32 -2.47)"/><path class="cls-2" d="M107,113.2a10.17,10.17,0,0,0,1,.3,4.12,4.12,0,0,0,1,.17.37.37,0,0,0,.14,0s0,0,0,0a1.13,1.13,0,0,0-.09-.41c-.12-.31-.29-.63-.44-1a3.2,3.2,0,0,1,.79.81,1.2,1.2,0,0,1,.21.62.51.51,0,0,1-.25.42,1,1,0,0,1-.38.1,2.52,2.52,0,0,1-1.12-.31A2.57,2.57,0,0,1,107,113.2Z" transform="translate(-21.32 -2.47)"/><path class="cls-2" d="M106.27,112.81c.34.13.7.2,1,.3a4.64,4.64,0,0,0,1,.16l.14,0s0,0,0,0a1,1,0,0,0-.09-.4c-.12-.32-.29-.64-.43-1a3.3,3.3,0,0,1,.78.8,1.24,1.24,0,0,1,.21.63.51.51,0,0,1-.25.41.83.83,0,0,1-.38.1,2.51,2.51,0,0,1-1.12-.3A2.69,2.69,0,0,1,106.27,112.81Z" transform="translate(-21.32 -2.47)"/><path class="cls-2" d="M105.62,112.58a10.17,10.17,0,0,0,1,.3,4.08,4.08,0,0,0,1,.16.37.37,0,0,0,.14,0s0,0,0,0a1.13,1.13,0,0,0-.09-.41c-.12-.31-.29-.63-.43-1a3.17,3.17,0,0,1,.78.81,1.17,1.17,0,0,1,.21.62.5.5,0,0,1-.25.41.72.72,0,0,1-.38.1,2.39,2.39,0,0,1-1.12-.3A2.57,2.57,0,0,1,105.62,112.58Z" transform="translate(-21.32 -2.47)"/><path class="cls-2" d="M104.83,112.23a10.09,10.09,0,0,0,1,.29,4.12,4.12,0,0,0,1,.17l.15,0,0,0a1,1,0,0,0-.09-.4c-.12-.32-.29-.64-.43-1a3.34,3.34,0,0,1,.78.81,1.2,1.2,0,0,1,.21.63.51.51,0,0,1-.25.41,1,1,0,0,1-.37.1,2.53,2.53,0,0,1-1.13-.31A2.67,2.67,0,0,1,104.83,112.23Z" transform="translate(-21.32 -2.47)"/><path class="cls-2" d="M103.94,111.74c.34.12.7.2,1,.29a4.12,4.12,0,0,0,1,.17.37.37,0,0,0,.14,0s0,0,0,0a.91.91,0,0,0-.08-.41c-.12-.31-.3-.63-.44-1a3,3,0,0,1,.78.81,1.12,1.12,0,0,1,.22.62.54.54,0,0,1-.25.42,1,1,0,0,1-.38.1,2.56,2.56,0,0,1-1.13-.31A2.73,2.73,0,0,1,103.94,111.74Z" transform="translate(-21.32 -2.47)"/><path class="cls-2" d="M103.32,111.51c.34.13.69.2,1,.3a4.74,4.74,0,0,0,1,.16l.15,0s0,0,0,0a1,1,0,0,0-.08-.4c-.12-.32-.3-.64-.44-1a3.34,3.34,0,0,1,.78.81,1.08,1.08,0,0,1,.21.63.51.51,0,0,1-.25.41.93.93,0,0,1-.37.1,2.7,2.7,0,0,1-1.13-.3A2.56,2.56,0,0,1,103.32,111.51Z" transform="translate(-21.32 -2.47)"/><path class="cls-2" d="M135.69,114.1a.87.87,0,0,1-1.12-.24,1.33,1.33,0,0,1-.06-1.25,3.49,3.49,0,0,1,.62-1,4,4,0,0,1,.84-.74c-.15.35-.36.65-.53,1a7.89,7.89,0,0,0-.46.92,1.23,1.23,0,0,0-.09.87A.89.89,0,0,0,135.69,114.1Z" transform="translate(-21.32 -2.47)"/><path class="cls-2" d="M136.73,113.59a.87.87,0,0,1-1.12-.23,1.33,1.33,0,0,1-.06-1.25,3.22,3.22,0,0,1,.62-1,4.35,4.35,0,0,1,.85-.75c-.16.35-.37.65-.53,1a6.77,6.77,0,0,0-.47.93,1.26,1.26,0,0,0-.09.86A.88.88,0,0,0,136.73,113.59Z" transform="translate(-21.32 -2.47)"/><path class="cls-2" d="M137.56,113.27a.86.86,0,0,1-1.12-.23,1.33,1.33,0,0,1-.06-1.25,3.22,3.22,0,0,1,.62-1,4.3,4.3,0,0,1,.84-.75c-.15.35-.36.65-.53,1a10.14,10.14,0,0,0-.47.93,1.2,1.2,0,0,0-.08.86A.87.87,0,0,0,137.56,113.27Z" transform="translate(-21.32 -2.47)"/><path class="cls-2" d="M138.58,112.88a.87.87,0,0,1-1.12-.23,1.33,1.33,0,0,1-.06-1.25,3.22,3.22,0,0,1,.62-1,4.32,4.32,0,0,1,.85-.75c-.16.35-.37.65-.53,1a6.77,6.77,0,0,0-.47.93,1.26,1.26,0,0,0-.09.86A.88.88,0,0,0,138.58,112.88Z" transform="translate(-21.32 -2.47)"/><path class="cls-2" d="M139.38,112.59a.88.88,0,0,1-1.13-.24,1.33,1.33,0,0,1-.06-1.25,3.49,3.49,0,0,1,.62-1,4.26,4.26,0,0,1,.85-.74c-.16.35-.37.65-.53,1a7.38,7.38,0,0,0-.47.93,1.29,1.29,0,0,0-.09.87A.91.91,0,0,0,139.38,112.59Z" transform="translate(-21.32 -2.47)"/><path class="cls-2" d="M140,112.47a.87.87,0,0,1-1.12-.23,1.33,1.33,0,0,1-.06-1.25,3.22,3.22,0,0,1,.62-1,4.3,4.3,0,0,1,.84-.75c-.15.35-.36.65-.53,1a8,8,0,0,0-.46.93,1.21,1.21,0,0,0-.09.86A.87.87,0,0,0,140,112.47Z" transform="translate(-21.32 -2.47)"/><path class="cls-3" d="M119.17,58.36a24.52,24.52,0,0,0,3.64-.15c1.62-.11,3.23-.28,4.84-.44q11.55-1.14,23.12-1.94a52.08,52.08,0,0,1,8.47-.17,44.33,44.33,0,0,1,9.22,2.11c2.07.66,4.5,1.15,6.12,2.69a24.18,24.18,0,0,1,3.8,5.48c.78,1.31,1.62,2.58,2.28,4a26.06,26.06,0,0,1,1.54,4.37,22.64,22.64,0,0,0,1.36,4.35c.32.61,1.09,1.81,1.86,1.85a5.69,5.69,0,0,0,.13-1.43l.18-2.62.4-5.88c0-.26.35-2,.15-2.15l-24-22.69-33.74,3L112.16,56l2.92,1a24.57,24.57,0,0,0,3.2,1.18A6.57,6.57,0,0,0,119.17,58.36Z" transform="translate(-21.32 -2.47)"/></g><g id="ögon"><path class="cls-8" d="M166.93,130.88a14.39,14.39,0,0,0-3.87-.94,8.15,8.15,0,0,0-2.29.18c-1.48.28-3,.79-4,1.07a5.62,5.62,0,0,1-.8.2c-.81.09-7.31.33-8.65,0l-.33-.07a44.53,44.53,0,0,0-4.45-.48,14.09,14.09,0,0,0-3.12,0c-1.13.29-4.1.74-2.83-.9a65.41,65.41,0,0,1,6.15-3.28,38.67,38.67,0,0,1,3.91-1.6,12.79,12.79,0,0,1,4.48-.84,21.65,21.65,0,0,1,6.29,1.87c1.09.47,2.2,1,3.25,1.49C163.89,129.14,166.61,130.7,166.93,130.88Z" transform="translate(-21.32 -2.47)"/><path class="cls-8" d="M104.76,129.93c-.52.11-3.23-.75-4.94-1.08a6.36,6.36,0,0,0-1-.12c-1.11,0-3.15.1-4.54.25l-.76.1a39.1,39.1,0,0,1-7-.14c-.78-.14-1.74-.46-2.72-.72-.47-.13-.94-.24-1.4-.32s-1.35-.22-2.18-.33a24.35,24.35,0,0,0-3.11-.33c-.5.07-3.81,1.27-3.81,1.27s1.21-.71,2.86-1.65c1.12-.64,2.43-1.38,3.71-2.07,1.64-.89,3.22-1.71,4.23-2.13a3.85,3.85,0,0,1,.91-.29c1.56-.14,6.36-1.13,8.05-.7q.39.09.84.24A15.59,15.59,0,0,1,98.4,124c.6.55,1.51,1.46,2.17,2a3.7,3.7,0,0,0,.65.51,35,35,0,0,1,3.54,2C105.18,128.94,105.39,129.78,104.76,129.93Z" transform="translate(-21.32 -2.47)"/><path class="cls-9" d="M160.82,129.18c0,.32,0,.63,0,.94-1.48.28-3,.79-4,1.07a5.62,5.62,0,0,1-.8.2c-.81.09-7.31.33-8.65,0l-.33-.07a44.53,44.53,0,0,0-4.45-.48,9.25,9.25,0,0,1,.2-4.18,38.67,38.67,0,0,1,3.91-1.6,12.79,12.79,0,0,1,4.48-.84,21.65,21.65,0,0,1,6.29,1.87c1.09.47,2.2,1,3.25,1.49A8.43,8.43,0,0,1,160.82,129.18Z" transform="translate(-21.32 -2.47)"/><path class="cls-9" d="M100.57,126a9.55,9.55,0,0,1-.75,2.82,6.36,6.36,0,0,0-1-.12c-1.11,0-3.15.1-4.54.25l-.76.1a39.1,39.1,0,0,1-7-.14c-.78-.14-1.74-.46-2.72-.72-.47-.13-.94-.24-1.4-.32s-1.35-.22-2.18-.33a9.47,9.47,0,0,1-.35-2.56v-.22c1.64-.89,3.22-1.71,4.23-2.13a3.85,3.85,0,0,1,.91-.29c1.56-.14,6.36-1.13,8.05-.7q.39.09.84.24A15.59,15.59,0,0,1,98.4,124C99,124.55,99.91,125.46,100.57,126Z" transform="translate(-21.32 -2.47)"/><path class="cls-10" d="M95.16,125.75a6.29,6.29,0,0,1-.87,3.23l-.76.1a39.1,39.1,0,0,1-7-.14c-.78-.14-1.74-.46-2.72-.72a6.55,6.55,0,0,1-.48-2.47,6.41,6.41,0,0,1,.78-3.09,3.85,3.85,0,0,1,.91-.29c1.56-.14,6.36-1.13,8.05-.7q.39.09.84.24A6.27,6.27,0,0,1,95.16,125.75Z" transform="translate(-21.32 -2.47)"/><circle cx="68.29" cy="123.29" r="2.07"/><path class="cls-11" d="M86.72,125.75s2.75-2,4.27-2.07.88-1,.88-1-2.22-.42-3,0-2.82,1.45-2.86,1.91-.24.79,0,1.11S86.72,125.75,86.72,125.75Z" transform="translate(-21.32 -2.47)"/><path class="cls-12" d="M157.67,127.88a6.43,6.43,0,0,1-.9,3.31,5.62,5.62,0,0,1-.8.2c-.81.09-7.31.33-8.65,0l-.33-.07a6.53,6.53,0,0,1-.34-6.26,12.79,12.79,0,0,1,4.48-.84,21.65,21.65,0,0,1,6.29,1.87A6.61,6.61,0,0,1,157.67,127.88Z" transform="translate(-21.32 -2.47)"/><circle cx="130.28" cy="125.56" r="2.07"/><path class="cls-13" d="M149.07,128.35s2.14-1.86,3.32-2,.68-.91.68-.91-1.72-.4-2.32,0-2.19,1.38-2.22,1.82-.19.75,0,1.06S149.07,128.35,149.07,128.35Z" transform="translate(-21.32 -2.47)"/><path d="M137.61,126.86a17.49,17.49,0,0,1,7.4-4.75c2.92-.84,6-.39,8.85.2,1.45.29,2.88.65,4.3,1a20.31,20.31,0,0,1,4.26,1.36,21.61,21.61,0,0,1,3.85,2.29c.3.22.59.46.87.69a7.14,7.14,0,0,0,.89.57,14.78,14.78,0,0,0,2,.95l0,.1a11.58,11.58,0,0,1-2.13-.64,6.57,6.57,0,0,1-1-.51c-.31-.21-.61-.4-.92-.58a24.84,24.84,0,0,0-3.85-2,28.15,28.15,0,0,0-4.11-1.32c-1.42-.39-2.82-.8-4.24-1.15-2.8-.68-5.74-1.21-8.54-.5a17.22,17.22,0,0,0-7.46,4.34Z" transform="translate(-21.32 -2.47)"/></g><g id="Layer_3" data-name="Layer 3"><path id="hår" class="cls-2" d="M44.13,130.62a13.15,13.15,0,0,0,1.18-.71A417.55,417.55,0,0,1,49.69,86.4c3.08-18.78,11.28-27.09,18-30.76A23.4,23.4,0,0,1,76,52.89c5.08-.56,39.07,4.14,44.9,4.14s27.48-3,41.6-2.82a17.61,17.61,0,0,1,14.23,6.71c2.64,3.26,3.85,6.68,4.87,7.6.34.31.8,1.86,1.33,4.25,2.69,12.07,7.2,45.56,7.52,49,0,.1,0,.24,0,.41v0c1.86,6.58,3.61,13.45,4.29,13,17.68-10.66,15.56-48.78,15.43-59,0-2-4.7-22.22-11.48-28.75-10-9.58-46.24-29.78-64.38-32.33-17.5-2.46-19.18-.74-23.68-.85C91,13.84,70.07,28.75,65.12,33.69,63,35.78,61.54,38.5,59.7,40.8a16.88,16.88,0,0,1-3.15,3.28c-1.7,1.23-3.64,1-5.61,1.25-5.35.67-7.56,5.29-9.46,9.69-2.36,5.46-4.24,11.13-6.18,16.75C33.2,77.86,31.11,84,28.78,90c-1.44,3.72-5.16,14.5-4.31,17.89a78.3,78.3,0,0,0,6.21,16.75,7.66,7.66,0,0,0,2.7,2.92Z" transform="translate(-21.32 -2.47)"/><path class="cls-14" d="M195.48,61.84s7.35,4.54,9.61,5.22-8.67.7-8.67.7l-7.78-3.62Z" transform="translate(-21.32 -2.47)"/><polygon class="cls-15" points="177.71 64.14 185.17 63.94 188.29 61.44 178.53 58.29 174.16 59.37 177.71 64.14"/><path class="cls-16" d="M196.66,69.25s12.56,2,14.26,1.62a12.64,12.64,0,0,0,1.94-.74,13.61,13.61,0,0,1-2.19,2.39,71.6,71.6,0,0,1-12,.1,20.46,20.46,0,0,1-5.82-2.49C192.42,69.65,196.66,69.25,196.66,69.25Z" transform="translate(-21.32 -2.47)"/><path class="cls-17" d="M190.52,63.08s6.26,3.68,9.13,4,9.78.28,9.78.28-.56,1.07-3.1,1.55-17-.14-18.26-.63-1.17-2.48-1.17-2.48Z" transform="translate(-21.32 -2.47)"/><path class="cls-18" d="M200.66,104.33s5.22,3.34,7.29,3.48a6,6,0,0,0,3.3-.61,14.14,14.14,0,0,1-2.6-.33c-.65-.23-3.85-4.26-3.85-4.26Z" transform="translate(-21.32 -2.47)"/><path class="cls-19" d="M189.11,71.66a43,43,0,0,0,6.6,3.07c2.71.85,12,0,12.6-.34A12.61,12.61,0,0,0,210,73s-2.33,3.28-3.35,3.88-11.65,1.87-14.79,1-6.38-3.43-6.38-4.52S189.11,71.66,189.11,71.66Z" transform="translate(-21.32 -2.47)"/><path class="cls-20" d="M177.36,60.28s7.81-2.16,10.71-1.93a27.84,27.84,0,0,1,7.46,1.93A9.57,9.57,0,0,1,198,61.74s-8.45.24-9.6.8-6.63,2.66-7.18,2.78a13.21,13.21,0,0,1-1.47.16l-3.7-5.2Z" transform="translate(-21.32 -2.47)"/><path class="cls-21" d="M188.66,67.81s11.57-.56,12.8-1.08,4.37-.66,5.13-1.08a25.22,25.22,0,0,0,2.82-2.57s.24,3.46-.94,4.24-11.72,2.66-13.6,2.75-4.07.17-5.27-.49A1.66,1.66,0,0,1,188.66,67.81Z" transform="translate(-21.32 -2.47)"/><path class="cls-22" d="M200.14,83.72,202,80.89a49.89,49.89,0,0,0,6.75-1.6c1.25-.61,4.07-1.13,4.94-.84a15.49,15.49,0,0,1,1.67.66,22.16,22.16,0,0,0-3.11.56,15,15,0,0,0-3.95,2.07c-.32.46-3,2.58-4.13,2.73S201,85,201,85l-.89-1.46Z" transform="translate(-21.32 -2.47)"/><path class="cls-23" d="M185,83.72s7.5,0,10.09,1.22a34.13,34.13,0,0,1,4.08,2.41c1.94,1.25,3.85,2.55,5.71,3.91.72.52,1.43,1.07,2.13,1.62a14.45,14.45,0,0,1,2,1.66,4.42,4.42,0,0,1,1.16,3,22,22,0,0,0,.15,4.37,25.1,25.1,0,0,0,.91,2.65c0-.08-.44-.21-.51-.24a21.07,21.07,0,0,1-2.71-1.51,7.27,7.27,0,0,1-1.84-2c-.63-.93-1.27-1.84-1.93-2.75-.49-.67-1-1.34-1.49-2a7.3,7.3,0,0,0-1.08-1.21c-1-.8-7.38-5.46-9.31-5.84s-4.63-.42-5.48-.73a6.36,6.36,0,0,0-1.18-.35Z" transform="translate(-21.32 -2.47)"/><path class="cls-24" d="M185.58,87.16s1,.13,1,.14c.62.13,1.23.27,1.84.42,1.72.42,3.44.89,5.13,1.44a13.39,13.39,0,0,1,5.92,3.2A25.43,25.43,0,0,1,202.7,97q1.31,2.16,2.79,4.18c.49.68,1,1.34,1.52,2,.26.32.55.62.82.93.14.15.6.82.82.76a2.49,2.49,0,0,1-.6.2c-.34,0-.68,0-1,0a18.3,18.3,0,0,1-2.09.06,4.63,4.63,0,0,1-3.61-2c-1.94-2.58-3.08-5.68-5.41-8a3.5,3.5,0,0,0-1.43-1c-2.58-.75-8.15-1.6-8.15-1.6Z" transform="translate(-21.32 -2.47)"/><path class="cls-15" d="M186.23,91.24s10,.78,11.77,3.11,1.69,4.59,3,5.65,1.82,4.09,3.35,5.36,1.88,2.76,4.35,3.32a11.45,11.45,0,0,1-3.64,0c-1.3-.35-3.77-.84-4.48-2.08s-5.65-7.94-8.19-8.79S187,96.34,187,96.34Z" transform="translate(-21.32 -2.47)"/><path class="cls-25" d="M186.9,95.64s6.78,1.18,9,2.31,1.52,3.74,3.43,5.86,4.45,6.59,6.28,7.5,3.11,4.43,3.11,4.71v1.55a4,4,0,0,0-1.41-2.61,9.49,9.49,0,0,0-4.66-2c-1.13-.22-3.27-2.35-4-3.13s-3.54-3.83-3.76-4-7.55-4-7.55-4Z" transform="translate(-21.32 -2.47)"/><path class="cls-24" d="M187.29,101.06s7.37,1.2,8.65,3.46,2.69,6.85,3.47,7.84,7,5.82,7.62,6.3S208,122,208,122s-1.76-1.48-2.47-2.26-4.19-1.27-4.92-1.62-2.84-3.52-3.9-4.86a17.55,17.55,0,0,0-5.37-4.46,12.7,12.7,0,0,1-3.59-2.68Z" transform="translate(-21.32 -2.47)"/><path class="cls-24" d="M183.79,76.77l1.31,7.47a16.58,16.58,0,0,0,2.61.5l2.59.79c1.77.56,3.54,1.14,5.29,1.77,3.61,1.32,7.87,2.78,10.73,5.4,1.6,1.48,2.35,3.51,3.15,5.5.22.57,3.33,3.77,3.19,4.41a15.37,15.37,0,0,0-1.11-8.33,29,29,0,0,0-4.81-7.21c-1.19-1.15-2.28-2.4-3.54-3.47A11.26,11.26,0,0,0,200.81,82c-4.36-2.08-8.76-4.08-13.12-6.16Z" transform="translate(-21.32 -2.47)"/><path class="cls-15" d="M183,69.64a3.15,3.15,0,0,1,.52.35c2.62,2,5.24,4,8,5.7A16.69,16.69,0,0,0,193.84,77a4.82,4.82,0,0,0,1.31.19q.72.06,1.44.06c1,0,1.92,0,2.88-.09s1.92-.13,2.88-.19a14.11,14.11,0,0,0,5.67-1c1.69-.87,2.9-2.44,4.45-3.53a13.37,13.37,0,0,1-.48,3.88,2.31,2.31,0,0,1-1.08,1.4c-.34.23-.69.44-1,.65a39,39,0,0,1-8.55,4.06,8.76,8.76,0,0,1-2.54.41,9,9,0,0,1-2.35-.44A32.4,32.4,0,0,1,193,81.09c-2.3-.94-4.56-2-6.79-3.09-.82-.4-1.63-.81-2.44-1.23l-1.64-7.17c0,.05.49,0,.55,0A.71.71,0,0,1,183,69.64Z" transform="translate(-21.32 -2.47)"/><path class="cls-26" d="M177.67,42.57s5.22-2.15,8.26-1.37,6.8,2.15,6.8,2.15l-10.82,4.41-5.3.85Z" transform="translate(-21.32 -2.47)"/><path class="cls-27" d="M176.54,49.88a43.93,43.93,0,0,1,5.93-4.19c1.84-.82,4.66-1.07,5.6-1.53s6-.88,6.61-1.16,3.32.64,3.32.64-5,.67-5.75,1.16-1.06,1.55-2.23,2.08-9.56,4.17-9.56,4.17l-6,2.59Z" transform="translate(-21.32 -2.47)"/><path class="cls-28" d="M175,53.51s7.82-5.59,10.43-6.12,6.51-.9,8.07-1.7,6.63.6,6.63.6-3.43-.54-4.89,0a21.62,21.62,0,0,0-4.13,2c-1.33.84-9,4.7-10,4.84S175,53.51,175,53.51Z" transform="translate(-21.32 -2.47)"/><path class="cls-15" d="M175.66,53s4.34.1,6.35-.81,10.41-5.47,14.65-4.7,6,2.17,6,2.17a54.57,54.57,0,0,0-7.94.87c-3.25.7-6.85,3-8,3.62a40.83,40.83,0,0,1-9.29,2.31,20.19,20.19,0,0,1-3.95-.18l1.16-3.11Z" transform="translate(-21.32 -2.47)"/><path class="cls-29" d="M187.34,67.67s7.36-4.87,10.31-4.94,6.77-.07,8.47,1.13,7.2,5.58,7.55,6.7c0,0-1.2-6.78-1.91-7.48s-5.93-4.87-7-5.54S197.42,56.13,195,57s-9.5,5.42-10.08,5.63-4.27.81-4.27.81l1.86,2.22Z" transform="translate(-21.32 -2.47)"/><path class="cls-30" d="M173.54,57.77c1,.09.72-1.05,5.43-.31.88.14,1.82,0,2.71,0a14.61,14.61,0,0,0,5.55-.6c2.6-.82,5.05-2,7.56-3s5-2.15,7.66-2c1,.07,6.1,2.75,7.16,6.21-2.12-2.1-4.42-.84-5.68-1a9,9,0,0,0-2.78-.13c-1.55.22-3,.83-4.55,1.09a11.69,11.69,0,0,0-3.37,1.15,33.24,33.24,0,0,1-4.9,2.12,17,17,0,0,1-5.53.83,15.66,15.66,0,0,1-6.35-1.47.86.86,0,0,1-.45-.45C175.65,59.28,173.54,58.76,173.54,57.77Z" transform="translate(-21.32 -2.47)"/><polygon class="cls-31" points="147.03 34.92 155.99 30.12 157.55 32.52 147.38 39.23 147.03 34.92"/><path class="cls-32" d="M169,42.12s9.48-9.45,12.63-10,6.78,2.19,6.78,2.19-7.91,3.46-9.71,5.72-6.53,8.54-6.53,8.54h-4.51Z" transform="translate(-21.32 -2.47)"/><path class="cls-15" d="M171.83,56.61s7.39-15.18,8.45-15.83,5.51-3.89,8.61-3.6a47.14,47.14,0,0,1,4.8.63l-6.56-2.75s-5.58-.1-7.62,1.5-6.22,6.33-6.57,7.39-2.61,4-2.82,5.23-.57,5-.57,5l-.06,1.35Z" transform="translate(-21.32 -2.47)"/><path class="cls-33" d="M165,54.37s4.18,1.06,5,1.32,1.26-6.58,1.26-6.58S170.33,38,170.75,37s8.76-4.15,11.3-3.46,10.16,3.45,12,4.83a40.17,40.17,0,0,0,3.53,2.37s-1.56-4-2.26-4.73-6.54-4.78-9.88-5.3-12.85-1.69-14.76,0-6.29,3.75-6.43,7.06-.63,13.34-.42,14.26A9.79,9.79,0,0,0,165,54.37Z" transform="translate(-21.32 -2.47)"/><path class="cls-34" d="M160.93,54.2a29.21,29.21,0,0,1,4.14.27s.88-6.28,1.16-7.83-1-3.53-.77-4.73.28-5.6,1.34-6.33,2.82-3.7,5.43-3.91,10,0,10,0,6.85.49,7.76.92c0,0-5.36-5.5-7.2-5.4S170.54,27,166.87,28.4s-6.35,2.24-6.71,6.14S158.54,46.07,158.61,49A8.91,8.91,0,0,0,160.93,54.2Z" transform="translate(-21.32 -2.47)"/><path class="cls-35" d="M157.7,54.14h3.23s.35-7,0-8.33a26.4,26.4,0,0,1-.34-6.88c.28-.91,1.27-5.18,2.12-5.62s4.8-3.9,5.5-4.18,15.57,1,16.74,2.19l-4-4.53s-14.33-2.6-17.44-.63-8.15,6-8.45,8.38-1.36,11.76-1.36,11.76l2.61,7.84Z" transform="translate(-21.32 -2.47)"/><path class="cls-36" d="M154.52,54.37l3.18-.23s-2.75-6-2.26-7.84,2.83-6.45,2.26-7.89.7-6.17,1.83-7.16,4.58-11.09,12-9.67A50.22,50.22,0,0,1,182.82,25a14.46,14.46,0,0,1,3.52,1.83s-3.09-5.53-7.68-5.93S171,18,167.82,19.57s-6.59,3.44-6.95,4.05S147.94,29,148,37s4.23,17.19,4.23,17.19Z" transform="translate(-21.32 -2.47)"/><path class="cls-37" d="M31.71,127.91s-1.41-1.42-1.5-2.31,2.3-2.59,2.54-3.39.89-4.8.89-4.8l2.12.28v4.38s-3,2.45-3.11,3.25-.23,3.48-.23,3.48Z" transform="translate(-21.32 -2.47)"/><path class="cls-38" d="M41.59,78.4s-9.38,23.24-10.73,25.17-1.69,11.3-1.64,12.59.56,5.58-.57,6.71c0,0,3.72-2.35,4.33-3.67s1.65-7.29,2-8.33,9.6-31.15,9.6-31.15Z" transform="translate(-21.32 -2.47)"/><path class="cls-39" d="M41,84.66s-8.8,18.73-7.67,26,1.31,13.74.42,15c0,0,3.2-2.59,3.58-4s2.37-8.33,2.55-10.3-.34-4.9-.2-7.34,3.2-14.83,4.1-15.86a17.66,17.66,0,0,0,1.92-3.63l-3-1.69Z" transform="translate(-21.32 -2.47)"/><path class="cls-24" d="M50.93,77.84s-10.25,12-13,15-9.24,9.23-11,11.58-2.53,9.6-2.53,9.6,4.58-7.79,5.44-8.74,8.48-5.86,9.7-7.46S50.28,84.33,50.28,84.33l1.22-6.15Z" transform="translate(-21.32 -2.47)"/><path class="cls-40" d="M57,65.39c-1.94.26-3.87.49-5.81.7-4.48.49-8.74.5-12.94,2.34s-8.07,4.4-10.55,8.45c.44-.71,2.05-1.38,2.76-1.82,1.06-.64,2.15-1.24,3.26-1.8a46.18,46.18,0,0,1,6.9-2.76c5-1.53,9.91-1.64,15.08-2.37Z" transform="translate(-21.32 -2.47)"/><path class="cls-15" d="M50.53,78.67s-7.71,7.08-9.41,11.22-4.8,15.71-6.4,17.59-9.68,7.11-10.34,7.27c0,0,7.14-1.24,9.5-2.42s7.95-7.87,8.4-8.76S50,87.43,50,87.43l1.48-9.25Z" transform="translate(-21.32 -2.47)"/><path class="cls-41" d="M47.15,97s-5.72,14.77-7.24,15.62-9.07,4.23-10.09,5.27-4,3.95-4,3.95,4.33-1.79,6.87-1.88,5.14-1.14,5.83-2.07,8.67-12.24,8.67-12.24l1-8.47Z" transform="translate(-21.32 -2.47)"/><path class="cls-42" d="M46.39,110.87s-.93,6.68-3,8.75a63.85,63.85,0,0,1-7.48,6,28.62,28.62,0,0,0-4.24,4.56,40.75,40.75,0,0,0,7.34-2.82c2.36-1.41,5.08-5.59,5.6-6.42a32.07,32.07,0,0,0,1.44-3Z" transform="translate(-21.32 -2.47)"/><path class="cls-43" d="M72.3,53.51s3.83-1.54,5.36-1.14,4-9.83,4-9.83l-4-8S76,30.82,73,30.19,66,31.67,64.65,32s-4.52.64-4.52.64a26.4,26.4,0,0,0,5.26,1.48c1.8.14,4.42-.85,6.18.07s3.67,4.07,3.67,5.56a19.26,19.26,0,0,1-2.12,7.15C72,48.75,72.3,53.51,72.3,53.51Z" transform="translate(-21.32 -2.47)"/><path class="cls-44" d="M82.15,53.11s2.55-12.62.29-14.66S76.86,35.18,75,35.91s-6.28,3.07-7.7,4.46l1.28-3s3.28-3.5,5.87-4S84,32,86.49,36.4,88,53.65,88,53.65Z" transform="translate(-21.32 -2.47)"/><path class="cls-24" d="M60.13,50.45a26.17,26.17,0,0,1-2.55-2.82,7.35,7.35,0,0,1-1.32-2.17c-.34-1.11,0-2.35-.58-3.39A4.37,4.37,0,0,0,53,40.44,8,8,0,0,0,54,40.19a14,14,0,0,1,1.94,0,2.89,2.89,0,0,1,.88.13c1.34.47,2.76,2.75,3.28,4,.64,1.48,2.9,5.43,3,5.71s-1.41,1.65-1.41,1.65Z" transform="translate(-21.32 -2.47)"/><path class="cls-45" d="M67.33,55.81s-7.62-7.2-8-8.68-.52-8-1.14-8.75-2-2.8-2-2.8,4.45,1.93,4.73,2.8,2.68,6.15,2.82,7,4.74,5.44,5.55,6.27,1,3.17,1,3.17Z" transform="translate(-21.32 -2.47)"/><path class="cls-24" d="M72.42,48.68s-4.66-2.91-5-4.23-1.13-5.22-1.56-6.64-2.19-6.28-4-6.92a8,8,0,0,0-5.65-.34c-2.61.7-4,1.9-4.68,1.9a14.68,14.68,0,0,0-1.88.21s0,1.41,3.08,1.2,4-1.48,5.11-1.34S61,36.35,61,37.71s1.07,7,2.08,8.55,5,5.74,6.18,6.09S72.42,48.68,72.42,48.68Z" transform="translate(-21.32 -2.47)"/><path class="cls-46" d="M30.25,81.63c-2.2,1.93-2.89,2.73-3.29,5.62A12.94,12.94,0,0,1,23.64,94c-1.45,1.58-2.64,6.9-2.23,9,1.68-1,3.24-5.7,5.88-6.26,2.23-.48,1-2.3,2.68-3.88C34,89,38.1,85,42.5,81.46A22,22,0,0,1,45.69,79c1.69-.94,5-4.61,5-4.61l-3.49.27c-1.73.13-3.68,0-5.32.58a16.3,16.3,0,0,0-2.3,1.22c-2.83,1.6-5.84,2.42-8.44,4.47C30.84,81.13,30.55,81.38,30.25,81.63Z" transform="translate(-21.32 -2.47)"/><path class="cls-15" d="M55.05,66.91c-3.45,1.15-7.13,1.74-10.64,2.75-3.91,1.12-7.59,2.23-11,4.62a24.44,24.44,0,0,0-8.32,9.9,21,21,0,0,0-1,2.88c-.25.92-.22,1.91-.47,2.83.14-.49,1.06-.88,1.43-1.19.67-.57,1.27-1.23,1.94-1.81a32.82,32.82,0,0,1,10.46-6c2.05-.72,4.2-1,6.24-1.69,1.65-.56,8.29-2.55,8.62-3.48s3.85-8.49,3.85-8.49Z" transform="translate(-21.32 -2.47)"/><path class="cls-47" d="M60.91,60.88l-.74-.15a71.92,71.92,0,0,1-7.35-1.87A20.57,20.57,0,0,1,49,57.4c-1.31-.72-2.24-2-3.55-2.69a6.91,6.91,0,0,0-4.55-.56A12.4,12.4,0,0,0,36,55.91c-.85.64,4.61,5.14,4.61,5.14l16.28,4.62Z" transform="translate(-21.32 -2.47)"/><path class="cls-15" d="M60.54,61.27s-6.1,2.26-9,2.17-7.08-1.16-8.78-2.56S38.11,56.45,37.08,56a4.89,4.89,0,0,0-4-.13c-2.26.65-5.74,3.58-5.74,3.58S34,60.59,36,60.88s7.06,5.76,9.46,5.94,10.32.62,11.11-.34C58.15,64.56,60.54,61.27,60.54,61.27Z" transform="translate(-21.32 -2.47)"/><path class="cls-15" d="M66.07,56.62s-6.69-.41-9.51-1.35S50.44,51.12,47.43,51s-4,.66-6.79,1.84S37,55.29,35.19,56.55s-3.48,2.2-3.48,2.2S41.93,53.59,45.08,56c7.05,5.45,14.79,5.25,15.83,4.87S66.07,56.62,66.07,56.62Z" transform="translate(-21.32 -2.47)"/><path class="cls-48" d="M78.06,52.21s5.7.79,7,1.07,2.55-18.22,2.55-18.22c-2.66-3.54-6-7.38-6.58-11.86-.28-2-.41-4-1.37-5.76-.69-1.24-1.76-2.26-2.23-3.59-.77-2.2.45-4,.85-6-.16.81-2,1.13-2.38,2.05a4.39,4.39,0,0,0-.24,1.69c0,4.81,1.74,9.3,2.17,14,.46,5.06,3.24,9.68,3.49,14.76.08,1.61-2,9.3-2.11,9.79A15,15,0,0,1,78.06,52.21Z" transform="translate(-21.32 -2.47)"/><path class="cls-49" d="M65.45,57a2.81,2.81,0,0,1-1,0c-4.86-.53-9.51-1.9-12.89-5.62a12.74,12.74,0,0,0-1.82-1.85c-2.11-1.54-5.84-.19-8,.63-1.48.56-4,1.31-5.18,2.41C38.41,50.9,40,49.13,42.22,48c3.93-2,9-2.52,13-.29a106.81,106.81,0,0,1,9.1,6.16c.65.45,2,.93,2.1,1.78A1.26,1.26,0,0,1,65.66,57,.65.65,0,0,1,65.45,57Z" transform="translate(-21.32 -2.47)"/><path class="cls-50" d="M68.48,55.44a53,53,0,0,0-4.43-3.35c-1.52-1.15-3-2.32-4.67-3.33-3.44-2.13-7.31-3.26-11.31-2.25s-7.4,3.54-10.44,6.13c-1.67,1.42-3.27,2.94-4.86,4.46-.73.71-1.52,1.37-2.25,2.07-.14.14-1.87,2.58-1.5,2.57,1.26,0,2.48-1.12,3.5-1.75A38,38,0,0,0,36,57.56c5.27-4.08,11.16-11.46,18.65-7.71a22.53,22.53,0,0,1,3.81,2.71,44.19,44.19,0,0,0,5.3,3.61l1.73,1A10.19,10.19,0,0,1,68.48,55.44Z" transform="translate(-21.32 -2.47)"/><path class="cls-15" d="M86.11,21.58S73.83,32,70.93,38.82c-.67,1.59-4.09,9.09-4.65,9.44s-3.18,3-3.18,3,6.85-2.54,7.27-3.88S89.83,22.79,89.83,22.79Z" transform="translate(-21.32 -2.47)"/><path class="cls-15" d="M83.15,52.86l11.13,1.65s-3.72-17.16-3.51-20,.44-7.46-.94-9-9.51-5.29-14.73,0-3.95,5.66-7.55,8a69,69,0,0,1-7.42,4.23l4.17-.49s6.49-2.65,7.69-3.9,5.09-4.36,6.14-5.35,3.62-2.27,5.52-1.28,2.25,4.26,2.46,6.79S83.15,52.86,83.15,52.86Z" transform="translate(-21.32 -2.47)"/><polygon class="cls-51" points="71.84 45.22 69.72 43.32 70.43 31.12 74.53 23.7 83.09 28.33 79.47 42.19 71.84 45.22"/><path class="cls-24" d="M98.41,54.58s-7.22-4.34-7.36-5.83,2.53-3.57,3.44-4.48a18.46,18.46,0,0,0,3.64-5.41,8.51,8.51,0,0,0,.13-7c-.53-1.52-1.79-3.45-1.82-5,1-.08,9.68.9,9.65,1.62l-.67,17.16-4.13,10.33Z" transform="translate(-21.32 -2.47)"/><path class="cls-52" d="M101.39,54.13s-7.75-2.49-8.81-6.45C91.2,42.51,93,36.74,94.67,31.9a13,13,0,0,0,.9-6.67,10.15,10.15,0,0,0-3.73-5.73,17.46,17.46,0,0,0-6-3.4,11.75,11.75,0,0,0-6.69.81A19.14,19.14,0,0,0,71,24.13a14.87,14.87,0,0,0-1.56,5.36,16.44,16.44,0,0,0-.28,2.43v4s2.14-5.13,2.22-5.4a20,20,0,0,1,1.47-4c2.12-3.94,5.31-5.53,9.7-5.46a9.4,9.4,0,0,1,3.25.49c4.48,1.71,4,10,3.91,13.94-.11,5.73-2.81,12.75,1.6,17.67,1.12,1.25,2.54,1.15,4,1.49l5.23,1.12a.82.82,0,0,0,1-.67l.16-1Z" transform="translate(-21.32 -2.47)"/><path class="cls-53" d="M113.84,27.79s-13.68-8.54-17.28-8.26a21.18,21.18,0,0,0-6.38,2,47.83,47.83,0,0,0-7.79,4.18c-5.22,3.52-9,10.08-11.66,15.68-.38.79-.84,1.54-1.21,2.34a33.26,33.26,0,0,1-3.42,5.85c-1.09,1.48-2.19,3.65-4,4.33a4.72,4.72,0,0,1-2.81,0,29.25,29.25,0,0,1-4.61-1.6c2.68-.7,5.41-1,7.67-2.75a16.73,16.73,0,0,0,3.9-5.06c6-10.43,11.62-23,23.58-27.63,6-2.32,12.32-2.25,18.61-1.41a7.55,7.55,0,0,1,3.7,1.2c1.09.85,1.5,2.24,2.14,3.43a53.39,53.39,0,0,1,2.53,5.42Z" transform="translate(-21.32 -2.47)"/><path class="cls-54" d="M148,14.87a37.87,37.87,0,0,1,6.49,3.32c1.77,1.41,3.19-1.27,3.19-1.27l-5-3-5-1.78Z" transform="translate(-21.32 -2.47)"/><path class="cls-55" d="M148,17.76s2.8,1.78,3.16,2.52,3.79-1.2,3.79-1.2l-1.09-3.94L147,13.6Z" transform="translate(-21.32 -2.47)"/><path class="cls-56" d="M148,18.85c4.16-.89,8.33-1.79,12.54-2.4a5.69,5.69,0,0,1,1.54-.07c.48.07,2.33,1,2.73.51.81-.9-3.55-1.91-4-2-1.11-.27-3-.75-3.5-1.95,1.36-.06,2.78.8,4.06,1.21A25.54,25.54,0,0,1,166,15.69c.82.46,2.24,1.82.82,2.5-1.6.77-5.55.35-6.47.49S148,22,148,22Z" transform="translate(-21.32 -2.47)"/><path class="cls-57" d="M121.63,21.74s4-7.15,8.32-8.7S138.06,10,140.32,10s12,1.93,15.11,3.69,4.32,3.76,6.07,4a5.72,5.72,0,0,1,2.75,1.16,31.4,31.4,0,0,1-6.56-.66c-2.12-.64-7.77-4.8-10.66-4.59s-20,9-20,9l-6.35,2.89Z" transform="translate(-21.32 -2.47)"/><path class="cls-58" d="M104.05,56l6.66.74s-1.54-28.7-5.73-31.29-9.22-5.36-13.5-2.54S86.11,29,86.11,29l1.13,1.6L98,29.18l4.66,9.36-.24,12.52Z" transform="translate(-21.32 -2.47)"/><path class="cls-59" d="M115.3,33.42s-2-6.94-1.31-13.06,6.67-10.07,9.06-12.08c3-2.49,3.64-4,3.64-4s-.81,4.13-2,5.7-5.52,19.43-5.52,19.43Z" transform="translate(-21.32 -2.47)"/><path class="cls-60" d="M107.57,21.58s7.86,2.33,8.55,12.49S122,57.19,122,57.19L114,56.85l-4.8-12.54Z" transform="translate(-21.32 -2.47)"/><path class="cls-61" d="M125.29,56.38s-10-11.44-9.11-15.67,4.31-15.25,5.3-15.53,9.45-10.7,17.43-13.31A53,53,0,0,1,149.45,10s-5.24,4.4-9,7.57-1.2,2.19-11.2,8.19c-3.89,2.34-.73,28.84-.73,28.84l-.35,2.27-2.47.34Z" transform="translate(-21.32 -2.47)"/><path class="cls-62" d="M130.35,56.38s-8.1-15.11-7-19.3,10.54-13.32,12.94-13.93,10-5.22,9.93-7.48a43.91,43.91,0,0,0-.81-5.69s2.69,2.26,3.31,3.53a15.28,15.28,0,0,1,.57,6.3c-.33.74-4.61,3.77-4.61,3.77L133.76,56l-3.11.69Z" transform="translate(-21.32 -2.47)"/><path class="cls-24" d="M142,55.27l5.86-28.73s12.8-6.87,16.66-6.78a17.51,17.51,0,0,0,4.21-.37c.65-.13,2.48-.43,2.7-1.21a.82.82,0,0,0-.06-.51c-.66-1.75-2.71-2.54-4.46-2.53a6,6,0,0,1,1.91,1.68c-2,1.14-4.77,1-7,1.26-2.55.32-5.1.6-7.61,1.14A34.8,34.8,0,0,0,145.48,22a65.35,65.35,0,0,0-7.6,4.6c-3.26,2.25-6.55,4.19-8.85,7.54a10.26,10.26,0,0,0-1.4,4.55c-1,6.29,2.53,12.48,6.13,17.36C136.82,55.66,139.27,55.74,142,55.27Z" transform="translate(-21.32 -2.47)"/><path class="cls-15" d="M141.36,54.12c-1-1.93-2.41-3.63-3.42-5.53A15.67,15.67,0,0,1,135.81,41c0-.93.1-1.86.19-2.78a20.67,20.67,0,0,1,.93-5.23,6.3,6.3,0,0,1,3.18-3.27c1.63-.84,3.28-1.62,4.89-2.47,1.89-1,3.72-2.11,5.64-3.07a39.48,39.48,0,0,1,8.75-3.46c3.4-.77,6.78-.16,10.16.47a31.8,31.8,0,0,0-6.76.13,38.62,38.62,0,0,0-8.7,3.12,50.09,50.09,0,0,0-8.23,4.64c-1.17.82-2.36,1.6-3.5,2.46-.57.43-1.81,1.15-2,1.92-.28,1.22,5.27,20.49,5.84,21.12.3.34-1.35.52-1.49.53-.89.1-1.78.13-2.68.16a.34.34,0,0,1-.14,0,.26.26,0,0,1-.11-.17C141.66,54.76,141.51,54.43,141.36,54.12Z" transform="translate(-21.32 -2.47)"/><path class="cls-63" d="M145.59,53.51a23.25,23.25,0,0,0-2.67-2.25c-2-1.92-3-4.7-4-7.25-.91-2.4-1.88-5.38-1-7.93a4,4,0,0,1,.25-.6,15.58,15.58,0,0,1,5.28-6,8.64,8.64,0,0,1,2.77-1.1c.92-.22,1.85-.43,2.78-.63l1.34-.27c.23-.05,1.16-.37,1.35-.24s.17.49.17.72a19.15,19.15,0,0,1-.5,3.27c-.74,3.61-1.67,7.19-2.6,10.75q-1.26,4.84-2.62,9.66C146,52.23,145.78,52.87,145.59,53.51Z" transform="translate(-21.32 -2.47)"/><path class="cls-64" d="M156.77,26.73s-10.38,3-11.29,7,1.41,13.41,1.9,14.89,1.27,6,1.27,6h3.67s-3.65-19.63,2.9-23.4,6.28-5,6.28-5Z" transform="translate(-21.32 -2.47)"/><path class="cls-15" d="M101.21,44.8s.57-16.09-7.33-14.82-9.89,16-11.3,18.91S70.86,69.79,67.9,72.47s-10.87,3-3.11,20.19S62,112.45,60,113.55c4.94-5.5,5.63-10,1.69-19.76s-4.79-18.71-1.12-22.06S76.93,53.55,78.35,45.51s6.44-17.65,11.48-18.22,13.76,1.1,14.13,8.33c.18,3.32,1.46,20.55,1.46,20.55l-5-.38Z" transform="translate(-21.32 -2.47)"/><path class="cls-65" d="M81.3,97.87c5.94-7.89,4.59-13.15,2.44-19.2a17.92,17.92,0,0,1,2.57,6.08C86.81,87.81,86.58,92.68,81.3,97.87Z" transform="translate(-21.32 -2.47)"/><path class="cls-66" d="M149.72,51.59" transform="translate(-21.32 -2.47)"/><path class="cls-15" d="M146.74,14.69a6.68,6.68,0,0,1-.13,1.48,7.7,7.7,0,0,1-3.72,4.8l-.45.25c-2.37,1.21-7.93,1.6-9.43,1.69h-.38a24.87,24.87,0,0,0,4-2.47c2.13-1.5,3.43-4.17,4.31-6.55,1.05-2.85.88-5.66-1.16-8a14.16,14.16,0,0,0-4.51-3.42,5.53,5.53,0,0,0,.83.12,13.11,13.11,0,0,1,1.26.38A14.69,14.69,0,0,1,139.62,4C143.33,6.17,146.63,10.27,146.74,14.69Z" transform="translate(-21.32 -2.47)"/><path class="cls-67" d="M139,23a38.92,38.92,0,0,0-4.83,2.63,23.06,23.06,0,0,0-6.71,6.6c-.2.32-.4.65-.58,1a15.31,15.31,0,0,0-1.65,4.64,14,14,0,0,0,1.22,8c1,2.47,2.12,4.89,3.28,7.29.11.23,1.07,2.28,1.6,3.11a.24.24,0,0,1-.19.38c-1.08.1-2.21.33-3.27.36-.24,0-1.24-2.07-1.4-2.34A25.15,25.15,0,0,1,125,52.19c-.4-.93-.74-1.9-1.09-2.85-.9-2.44-1.72-4.91-2.39-7.42s-1.64-5.59-1.07-8.2S123.11,29,125,27.36a19.46,19.46,0,0,1,6.16-3.88,25.34,25.34,0,0,1,6.15-1.24,15.41,15.41,0,0,0,5.13-1c.15-.07.5-.27.65-.36C141.75,21.66,140.35,22.33,139,23Z" transform="translate(-21.32 -2.47)"/><path class="cls-24" d="M194.43,34.38c-.57,1.85-2.64,1.72-4.17,1.32a17.42,17.42,0,0,1-2.77-1A12.85,12.85,0,0,1,185,33.43c-3.72-1.42-12.69-4.79-14.84-5-2.73-.28-12.23-2-14-.66s-8.26,2.45-9.35,8.57,3.4,17.26,4,18.25-5.3.56-5.3.56a6.72,6.72,0,0,1-.56-1.39c-.48-1.22-.93-2.46-1.35-3.7a36.94,36.94,0,0,1-2.27-9.69c-.23-4.63,2.7-8.14,6-11.09a18.83,18.83,0,0,1,8.46-4.78c3.09-.67,6.33-.16,9.39.42,2.63.49,5.21,1.16,7.8,1.82a34.87,34.87,0,0,1,5,1.52c1.25.52,2.47,1.12,3.68,1.74a22.23,22.23,0,0,1,3.17,1.66c.12.09.24.18.35.28l1,.58A21.85,21.85,0,0,0,189.21,34c.59.21,2.11.86,2.6.18a1.11,1.11,0,0,0,.05-1,8.38,8.38,0,0,0-3.59-4.82A12.07,12.07,0,0,1,194,32.59,2.12,2.12,0,0,1,194.43,34.38Z" transform="translate(-21.32 -2.47)"/><path class="cls-68" d="M111.59,35.06c0,1,1.06,16,4.87,18.51a25,25,0,0,1,5,4l-11.58-.85s-3.12-6.13-3.08-9S111.59,35.06,111.59,35.06Z" transform="translate(-21.32 -2.47)"/><path class="cls-15" d="M154.52,54.37c-.45,0-1.28-3.47-1.43-3.9a27,27,0,0,1-1.41-5.73,13.15,13.15,0,0,1,2.58-9.2,21.29,21.29,0,0,1,16.54-8.67,34,34,0,0,1,14.64,2.77,11.6,11.6,0,0,0-4-4.52,17.18,17.18,0,0,0-5.35-1.9,29.46,29.46,0,0,0-5-1c-6.85-.4-12.48,3.53-16.91,8.4a17.92,17.92,0,0,0-4.9,13.19,50.56,50.56,0,0,0,1.45,10.73Z" transform="translate(-21.32 -2.47)"/><path class="cls-69" d="M127.46,56.85c-1.49-2-2.91-4-4.28-6.09-1.94-2.92-4.7-6.56-5.16-10.12-.68-5.22,3.8-9.56,4.73-14.48.83-4.46-.35-11.17,3-14.77a10.47,10.47,0,0,1,3.48-2.31c-3.1.21-6.15.89-7.89,3.67-2.26,3.6-2.43,7.64-3.19,11.67a42.8,42.8,0,0,1-1.81,6.37c-1.35,3.83-3,6.91-2.23,11.13.8,4.6,3.4,8.76,5.68,12.76.14.24,1.41,2.88,1.66,2.86l6.34-.53Z" transform="translate(-21.32 -2.47)"/><path class="cls-70" d="M160.93,4.28" transform="translate(-21.32 -2.47)"/><path class="cls-24" d="M55.78,68.05s-2.83.83-3.72,1.22a8.71,8.71,0,0,1-5.18,1,13.92,13.92,0,0,1-4.52-1.85,30.66,30.66,0,0,1-4.9-3.59c-1.22-1.09-2.62-2.45-4.39-2.29a11.85,11.85,0,0,0-3.32,1.23c0-1.95,2.25-3.16,3.94-3.22,4-.13,6.73,2.52,10.21,3.84a20.48,20.48,0,0,0,11.23,1,3.67,3.67,0,0,1,2.11.35Z" transform="translate(-21.32 -2.47)"/><path class="cls-24" d="M53.33,73.36a39.33,39.33,0,0,0-5.2,3.37C45,79.2,41.05,82.33,39.43,84c-3,3-6.84,5.1-9.49,8.42S26,97.53,25,101.6a80.84,80.84,0,0,1-3.62,9.27s5.75-6.71,7.61-11.59c1.37-3.58,5.39-5.6,8.16-8.31s6.16-5.28,9.26-7.9c1.6-1.36,3.22-2.7,4.85-4Z" transform="translate(-21.32 -2.47)"/><path class="cls-71" d="M80.85,52.14S79.35,42,76.46,40.71a11.1,11.1,0,0,0-8.14-.53c-2.4.81-3,1.66-4.3,2.5A13.19,13.19,0,0,1,60.13,44s3.53-2.82,4.45-3.77,2.4-1.52,3.11-2.37,6-1.76,6.92-1.41,6.24.89,7,3.3,3,13.64,3,13.64L80.37,53Z" transform="translate(-21.32 -2.47)"/><path class="cls-24" d="M106.79,48.19s1.35-18.92-7.41-23.3-15.81,9.46-22.3,19.2-1.41,20.19-.57,22.31c.54,1.34,4.36,7.45,7.23,12.27,2.7,5,3,12.93-1.35,18.1a22.67,22.67,0,0,1-6,4.64c-10.16,5.51-20.19-1.27-20.19-1.27a25,25,0,0,0,20.19-3.25c8.8-5.66,6.07-12.7-2-23.15S69.45,49,70.16,45.5s17.16-26.22,25-27.1c8.86-1,12.75,1.76,14.54,4C118,32.56,106.79,48.19,106.79,48.19Z" transform="translate(-21.32 -2.47)"/><path class="cls-72" d="M50.93,79.4c-1,2.75-2.09,5.48-3.26,8.16-1.06,2.42-2.05,5.11-4,7-2.28,2.27-4.55,4.54-7,6.59s-5.22,3.14-7.81,4.74a16.28,16.28,0,0,0-4.56,4c-1.41,1.89-1.84,4.07-2.36,6.32,1.35-1.72,2.74-3.42,4.2-5.06,2.59-2.93,6-4.46,9.29-6.42a47,47,0,0,0,8.9-7.2,19.21,19.21,0,0,0,4.88-6.6C50.61,87.26,49.94,83.15,50.93,79.4Z" transform="translate(-21.32 -2.47)"/><path class="cls-73" d="M21.21,127.34" transform="translate(-21.32 -2.47)"/><path class="cls-24" d="M46.39,106.16a68.55,68.55,0,0,0-6.48,9c-1.89,3.59-1.09,7.73-3.47,9.33s-6.89,4-6.61,5.64,3.2,5.11,3.2,5.11l4.33-7.93s8.89-10.73,9-12.86c.21-2.93.49-5.86.76-8.79Z" transform="translate(-21.32 -2.47)"/><path class="cls-74" d="M49.17,91s-6.61,6-6.89,7.34-.5,4.43-1.53,6a8.77,8.77,0,0,0-1.7,4.89c.1,1.51.43,2.64-2.47,3.58s-10.56,4.7-12.94,5.08a38.78,38.78,0,0,0,8.07-1.32c3.11-1,7.6-2.29,9.7-4.55s2.91-6.27,3.15-7.59,3.58-7.25,3.58-7.25Z" transform="translate(-21.32 -2.47)"/><path class="cls-75" d="M171,56.18s9.32-18.94,12.78-19.46,8.35.35,10.24,1.69a8.09,8.09,0,0,1,2.61,2.93,28.27,28.27,0,0,0-4.52-1.63c-1.69-.35-6.12-1.37-7.19-.33s-6,6.69-6.36,7.68-5.05,10.71-5.05,10.71Z" transform="translate(-21.32 -2.47)"/><path class="cls-76" d="M179.75,63.08s3.95,1.78,8.05,3.72a87.23,87.23,0,0,1,8.86,4.54c1.9,1.48,11.72,6.5,13.13,8s6.49,6.21,6.84,7.41.92,3.74.92,3.74-6.14-6.07-7.41-7A22.75,22.75,0,0,0,207.47,82q-2-1.08-4.11-2.07c-1.36-.65-2.75-1.26-4.15-1.84A20.08,20.08,0,0,1,195,75.86a10.8,10.8,0,0,1-1-.81c-.3-.27-.56-.64-.88-.88-.47-.35-1-.65-1.5-1-1.22-.75-2.47-1.43-3.72-2.12-.82-.45-1.64-.89-2.44-1.37A27.61,27.61,0,0,0,181,67.63l-3-4.71Z" transform="translate(-21.32 -2.47)"/><path class="cls-77" d="M174.42,55.94s5,.47,6.57-.13,7.27-3.07,9.28-3.92,7.48-2.43,9.42-2.22A9.7,9.7,0,0,1,204,51.33a8.35,8.35,0,0,1,1.13.92,25.07,25.07,0,0,0-2.61-.36,28.63,28.63,0,0,0-7.32,1.88c-1.33.77-7.67,3.6-9.72,3.77s-8.09-.1-9,0c-2.11.23-2.89.23-2.89.23Z" transform="translate(-21.32 -2.47)"/><path class="cls-24" d="M181.93,67.36c.3,0,.58.14.88.22l1.62.43c1.08.27,2.16.52,3.25.75a23,23,0,0,0,5.66.67,51.84,51.84,0,0,0,5.55-.79,37.92,37.92,0,0,1,5.73-.35c.41,0,.81,0,1.21,0,.79,0,1.59.09,2.38.07a3.26,3.26,0,0,0,2.1-.51,1.74,1.74,0,0,1-.69,1,3.08,3.08,0,0,1-1.86.46c-1.8,0-3.62,0-5.42.11-1.47.1-2.89.42-4.34.63a48.44,48.44,0,0,1-5.59.77q-2.92.08-5.83.26a32.68,32.68,0,0,1-4.08,0l-1.69-3.72C181,67.41,181.8,67.33,181.93,67.36Z" transform="translate(-21.32 -2.47)"/><path class="cls-78" d="M189.18,109.27a20.14,20.14,0,0,1,2.44,3.43c1,1.61,1.77,3.33,2.73,5,2.2,3.72,5.61,6.34,8.73,9.24-.37-.34-.49-1.77-.63-2.24l-1.08-3.79a3.54,3.54,0,0,0-.44-1c-.44-.6-1.22-.83-1.82-1.27a4,4,0,0,1-1.37-2.11c-.39-1.34-.21-2.76-.86-4a9.34,9.34,0,0,0-2.36-2.5c-.91-.81-1.47-2-2.46-2.72a20.1,20.1,0,0,0-4.41-1.69,15.93,15.93,0,0,0,.42,2.61C188.11,108.38,189,109.08,189.18,109.27Z" transform="translate(-21.32 -2.47)"/><path class="cls-15" d="M184.23,70.56s6.2,0,8.37,0,10.62,2.37,12.32,2.16,5.75-2.86,5.75-2.86-1.64,3.77-5,4.3a35.36,35.36,0,0,1-9.35-.21c-1.1-.21-2.61-1.16-3.58-1.23s-5.6.46-6.5.39a11.56,11.56,0,0,1-3-1.42Z" transform="translate(-21.32 -2.47)"/></g><g id="Layer_5" data-name="Layer 5"><path class="cls-79" d="M186.78,113.55c-2.4-.42-1.62-.81-4.38-1.13-3.52-.4-6.14-.73-8.19-1a123.38,123.38,0,0,0-25.3-.29c-9.52.81-16.94,7-18.56,6.82s-17.77-.32-18.5,0-9.07-6.79-26-7.92a72.58,72.58,0,0,0-20.58,1h-.07l-.15,0-.15,0-.25,0-.39.07-.49.09-9,1.64L42.64,121l-.36,3.88s9-9.11,12.64-9c2.1.08,3.83,2,4.93,3.73l-.06,1.39c-.58,13.92,5.3,34.59,25.63,34.67S110.27,140.16,111.6,135c1.45-5.64-.16-12.06,2.1-13s15.48-2.46,15.62,2.26c.12,3.77-1.06,14.13,7.72,24.66,3.67,4.41,17.91,12.52,33.88,2.64,7.49-4.63,10.28-15.26,10.57-24.07a.31.31,0,0,0,0,.07S183,122,183.8,120s3.4-2.11,3.4-2.11l8.67,6.85,1.76-2-.27-.6S191.48,117.32,186.78,113.55Zm-85.56,36c-11.87,8.19-23.14,3.81-28.65,1.28s-9.25-10.11-10.73-21.61,8.47-14.4,8.47-14.4c26.4-8,37.13,4.94,38.68,7.2S113.09,141.36,101.22,149.55Zm74.13-4.38c-3.53,7.49-23,16.1-35.58,4.24S133.42,122,133.42,122c10.44-13.13,31.62-9.6,41.22-4.52S178.88,137.69,175.35,145.17Z" transform="translate(-21.32 -2.47)"/><path d="M103.94,125.42c-1.29-.81-2.32-2-3.52-2.83a10.54,10.54,0,0,0-4.07-1.7,25.47,25.47,0,0,0-8.88-.12,47.4,47.4,0,0,0-8.61,2.32,28.82,28.82,0,0,0-4.06,1.8,21.38,21.38,0,0,1-4,2l0-.09a36.6,36.6,0,0,0,3.72-2.55,24.66,24.66,0,0,1,4.07-2.14A33.88,33.88,0,0,1,87.37,120a26,26,0,0,1,9.1.42,11,11,0,0,1,4.13,1.95c1.19,1,2.16,2.13,3.4,3Z" transform="translate(-21.32 -2.47)"/></g><g id="Läppar"><g id="öron"><path class="cls-80" d="M45.51,180a25.64,25.64,0,0,1-6.25-3.8c-1.83-1.55-2.13-15.53-2.27-20s-1.69-11.61-3.39-14.86-2.25-12.42.71-16.66c2.67-3.81,7.51,1.19,10.91,4.79C44.29,148.35,44.33,167,45.51,180Z" transform="translate(-21.32 -2.47)"/><path class="cls-80" d="M202.53,141.92q-.67,3.24-1.65,6.41a45.73,45.73,0,0,0-1.61,6.45c-.17,1.07-.3,2.14-.51,3.21s-.61,2.14-.93,3.23c-1.11,3.78-2.57,7.43-2.25,11.45.26,3.13.55,7.41-2.85,9.21a14.06,14.06,0,0,1-1.32.6c2.25-17.92,1.48-36.27-.08-54.22a28.44,28.44,0,0,1-.37-4.76,12.7,12.7,0,0,1,1.91,1.62,1.62,1.62,0,0,0,.83.49c.8.09,2.4-3.32,2.92-4,1-1.21,2.41-2.69,4.14-2.46s2.59,2.1,2.84,3.68.64,3,.75,4.57a25.68,25.68,0,0,1-.33,4.71c-.32,2.67-.66,5.34-1.15,8C202.77,140.74,202.65,141.33,202.53,141.92Z" transform="translate(-21.32 -2.47)"/><path d="M43.74,145.35a14.56,14.56,0,0,0-2.93,3.93,6.11,6.11,0,0,0-.65,2.29c0,.39,0,.77,0,1.22a9.07,9.07,0,0,1-.07,1.28,35,35,0,0,0-.52,4.84,3.12,3.12,0,0,0,.76,2.08,5.53,5.53,0,0,0,2,1.23l0,.08a4.62,4.62,0,0,1-2.38-.94A3.61,3.61,0,0,1,38.86,159c-.16-1.77.43-3.38.67-5a8.13,8.13,0,0,0,.12-1.2c0-.37,0-.82,0-1.26a6.54,6.54,0,0,1,.81-2.42,14.77,14.77,0,0,1,3.21-3.82Z" transform="translate(-21.32 -2.47)"/><path d="M43.38,132.49a16,16,0,0,0-1.71-2.65,4.26,4.26,0,0,0-2.4-1.74h-.35l-.33.1-.72.33c-.48.22-.95.45-1.4.7a5.33,5.33,0,0,0-2.22,2A3.81,3.81,0,0,0,34,134q.39,1.54.72,3.09c.43,2.07.84,4.12,1.44,6.15l-.07,0a29.36,29.36,0,0,1-2.1-6q-.37-1.55-.72-3.09a4.56,4.56,0,0,1,.42-3.31,5.85,5.85,0,0,1,2.51-2.1c.48-.25,1-.46,1.46-.66l.73-.31.44-.11a2.17,2.17,0,0,1,.44,0,4.5,4.5,0,0,1,2.54,2,16.84,16.84,0,0,1,1.6,2.75Z" transform="translate(-21.32 -2.47)"/><path d="M194.35,134.82a6.94,6.94,0,0,1,3.53-3.21,2.4,2.4,0,0,1,2.49.66,3.26,3.26,0,0,1,.51,2.53c-.1.81-.32,1.59-.41,2.32a2,2,0,0,0,0,.48,5,5,0,0,1,0,.65,9.58,9.58,0,0,1-.08,1.21,21.24,21.24,0,0,1-1.09,4.63c.14-.77.24-1.55.31-2.34s.17-1.56.2-2.33c0-.39,0-.78,0-1.15a4.51,4.51,0,0,0-.07-.53,2.74,2.74,0,0,1,0-.69c.09-.84.29-1.59.38-2.34a2.67,2.67,0,0,0-.31-2,1.91,1.91,0,0,0-1.82-.56,5,5,0,0,0-2,1A12.89,12.89,0,0,0,194.35,134.82Z" transform="translate(-21.32 -2.47)"/><path class="cls-1" d="M194.35,142.78s3.39,3,3.27,4.58-1.81,4.38-1.63,5.23-1.94,2.68-1.94,2.68" transform="translate(-21.32 -2.47)"/><path d="M194.35,142.78a13.2,13.2,0,0,1,2.7,2.53,4.23,4.23,0,0,1,.91,1.75,4.71,4.71,0,0,1-.38,1.95c-.21.59-.46,1.15-.7,1.71a8.82,8.82,0,0,0-.6,1.63,1.15,1.15,0,0,0,0,.16,1.14,1.14,0,0,1-.2.81,4.52,4.52,0,0,1-.59.76,10,10,0,0,1-1.42,1.19,15,15,0,0,0,1.13-1.42,3.66,3.66,0,0,0,.44-.75.77.77,0,0,0,.09-.51,1,1,0,0,1,0-.29,20.41,20.41,0,0,1,1.19-3.54,4.51,4.51,0,0,0,.38-1.61,4.25,4.25,0,0,0-.68-1.5A29.91,29.91,0,0,0,194.35,142.78Z" transform="translate(-21.32 -2.47)"/></g><path class="cls-81" d="M149.69,186.78l-.36.36c-1.68,1.65-5.82,5.45-15.49,7.3A66.66,66.66,0,0,1,120,195.5a60.63,60.63,0,0,1-15.82-2.33l0,0C93,189.94,87,184.56,87,184.56s12.25-.56,19.31-3,12.07.63,12.77.7,5.93-2.26,11.3-.49S148,187,149.69,186.78Z" transform="translate(-21.32 -2.47)"/><path class="cls-82" d="M149.69,186.78l-.36.36c-1.68,1.65-5.82,5.45-15.49,7.3A66.66,66.66,0,0,1,120,195.5a60.63,60.63,0,0,1-15.82-2.33l0,0C93,189.94,87,184.56,87,184.56s12.25-.56,19.31-3,12.07.63,12.77.7,5.93-2.26,11.3-.49S148,187,149.69,186.78Z" transform="translate(-21.32 -2.47)"/><path class="cls-83" d="M87,184.56a40.06,40.06,0,0,0,7.7,1.46,22.5,22.5,0,0,0,3.85,0c.31,0,.62-.09.93-.13l1-.15a20,20,0,0,1,2.05-.12,53,53,0,0,1,7.93.88c2.52.36,5.18.47,7.77.62s5.2.15,7.79.07c1.3,0,2.6-.14,3.9-.23l1.95-.17c.67-.07,1.33-.13,2-.17,5.31-.25,10.57,0,15.84.16-5.25.5-10.54.65-15.72,1.22-.65.07-1.29.16-1.93.25l-2,.31c-1.32.2-2.65.33-4,.43a64.4,64.4,0,0,1-8,.11c-1.33,0-2.65-.15-4-.26s-2.67-.23-4-.46a70.85,70.85,0,0,0-7.69-1.28c-.63,0-1.26,0-1.9,0l-2,.11a20.81,20.81,0,0,1-4-.31A31.93,31.93,0,0,1,87,184.56Z" transform="translate(-21.32 -2.47)"/><path class="cls-84" d="M119.39,190.92a5.18,5.18,0,0,0,1.75-.06l3.54-.12c1.77-.08,3.53-.23,5.29-.47a35.37,35.37,0,0,1,3.56-.47,6.41,6.41,0,0,1,1.8.13c.73.18,1.27.39.3.74a31.82,31.82,0,0,1-11.69,1.79A18,18,0,0,1,119.39,190.92Z" transform="translate(-21.32 -2.47)"/></g><g id="näsa"><path d="M134.39,166.73a10.77,10.77,0,0,0,4.46-1.68,4.87,4.87,0,0,0,2.12-3.87,12.22,12.22,0,0,0-1-4.53,26.68,26.68,0,0,0-2.05-4.33l.07-.07a11.48,11.48,0,0,1,2.9,4,9.59,9.59,0,0,1,.85,5,5.42,5.42,0,0,1-2.63,4.23,11.06,11.06,0,0,1-4.72,1.36Z" transform="translate(-21.32 -2.47)"/><path d="M106.71,162.4a9.1,9.1,0,0,1,3.18-1.09,7.21,7.21,0,0,1,3.38.4,10.81,10.81,0,0,1,3,1.7c.45.35.85.76,1.28,1.13l1.16,1.26,0,0a3,3,0,0,0,1.79.79,6.72,6.72,0,0,0,2.07-.19,6.25,6.25,0,0,0,1.9-.76,6.06,6.06,0,0,0,1.42-1.47,5.76,5.76,0,0,1,.84-.88,3.43,3.43,0,0,1,1.13-.6,5.46,5.46,0,0,1,2.4-.17,10.84,10.84,0,0,1,2.21.65q1,.5,2,1l0,.09c-.72-.2-1.43-.42-2.13-.64a9.89,9.89,0,0,0-2.13-.36,4.64,4.64,0,0,0-2,.28,3.56,3.56,0,0,0-1.48,1.24,5.89,5.89,0,0,1-1.68,1.7,6.85,6.85,0,0,1-2.26.79,7.15,7.15,0,0,1-2.36.09,3.76,3.76,0,0,1-2.18-1.07v0h0L117.05,165c-.39-.38-.76-.79-1.18-1.14a11.31,11.31,0,0,0-2.75-1.74,7,7,0,0,0-3.2-.54,9,9,0,0,0-3.17.91Z" transform="translate(-21.32 -2.47)"/><path d="M104.51,151.56a19.9,19.9,0,0,0-2.05,3.83,9.78,9.78,0,0,0-.84,4.12,5.35,5.35,0,0,0,1.62,3.55,13.33,13.33,0,0,0,3.5,2.35l0,.1a8.73,8.73,0,0,1-2.17-.54,6.35,6.35,0,0,1-2-1.19,4.92,4.92,0,0,1-1.36-1.94,5.82,5.82,0,0,1-.37-2.32,10.51,10.51,0,0,1,1.18-4.34,20.21,20.21,0,0,1,2.43-3.68Z" transform="translate(-21.32 -2.47)"/></g></svg>